<svg id="Layer_1" data-name="Layer 1" xmlns="http://www.w3.org/2000/svg" viewBox="0 0 123.09 26"><defs><style>.cls-1{fill:#484848;}</style></defs><title>dewynters-nl</title><path class="cls-1" d="M116.34,11.77a4.56,4.56,0,0,1-2.3-.58,11.68,11.68,0,0,1-1.81-1.32l-1,3-2.88-4.2a6.45,6.45,0,0,0,1.48-.66,3.66,3.66,0,0,0,1.48-1.89,3.33,3.33,0,0,0,1.07,2,7.42,7.42,0,0,0,3.54,1.48l.58.08c1.15.16,1.56.49,1.56,1C118.07,11.35,117.41,11.77,116.34,11.77ZM104.66,7h-1V3.87h.82c1.15,0,1.89.58,1.89,1.56S105.73,7,104.66,7ZM7.9,10.45a3.17,3.17,0,0,1-1.81.74h-1V4.69h.82c1.65,0,2.8,1.32,2.8,3.21A3.41,3.41,0,0,1,7.9,10.45ZM121.69,7a2.93,2.93,0,0,0-1-.66,3.41,3.41,0,0,1-.49-.16,12.09,12.09,0,0,0-2.39-.58h-.08c-.91-.16-1.32-.49-1.32-1.07s.41-.82,1.23-.82a8.57,8.57,0,0,1,3.37.91l1.32-3.46A10.44,10.44,0,0,0,117.9,0c-3.29,0-5.68,1.48-6.33,3.95-.33-2.3-2.14-3.46-5.18-3.46H98.65V11.68H92.32V9.79h4.2V6.09h-4.2V4.2h5V.49H68.13V7.82H68L63.85.49H53.56l-2,4-2-4H40.89L39,8.39h-.08L37,.49H32.66l-2,7.9h-.08L28.72.49H13.91V6.66A6.82,6.82,0,0,0,6.75.58H0V15.39H6.83a6.81,6.81,0,0,0,7.08-6.17v6.17H24.68V11.77H19V9.87h4.2V6.09H19V4.2h5.68l3,11.11h5.1l2-8.47h.08l1.89,8.47h5.1L45.25,2.8l3.95,6v6.5h5.1V8.8l4.53-7V15.39h5.1V8.06H64l4.2,7.32h5.1V4.2h4.61V15.39h5V4.2H87.3V15.39h16.54V9.63h.08L107,15.39h6l-.66-.91a4.06,4.06,0,0,0,.58.25,8.44,8.44,0,0,0,3.87,1c3.62,0,6.25-2.3,6.25-5.51A4.66,4.66,0,0,0,121.69,7Z"/><path class="cls-1" d="M7.32,20.57v5.35H6.5V19.34h.82l3.78,5.18V19.34h.82v6.58h-.82Z"/><path class="cls-1" d="M17.44,19.34h4.28v.74H18.27v2.14h3.46V23H18.27v2.3h3.46V26H17.44Z"/><path class="cls-1" d="M28.63,20.08H26.58v-.74h5v.74H29.54v5.84h-.82V20.08Z"/><path class="cls-1" d="M41.22,22.87H37.35v3h-.82V19.34h.82v2.8h3.87v-2.8H42v6.58h-.82Z"/><path class="cls-1" d="M47.56,19.34h4.28v.74H48.38v2.14h3.46V23H48.38v2.3h3.46V26H47.56Z"/><path class="cls-1" d="M59.24,23.28H57.92v2.63H57.1V19.34h2.63a1.88,1.88,0,0,1,2.06,2,1.83,1.83,0,0,1-1.73,1.89l1.81,2.72h-1Zm.41-3.21H57.92v2.55h1.73A1.23,1.23,0,0,0,61,21.39,1.3,1.3,0,0,0,59.65,20.08Z"/><path class="cls-1" d="M67.06,19.34h.82v5.84h3v.74H67.06Z"/><path class="cls-1" d="M80.22,24.44H76.85l-.58,1.48h-.91L78,19.34h1l2.63,6.58h-.91Zm-3.13-.74H80L78.58,20Z"/><path class="cls-1" d="M87.3,20.57v5.35h-.82V19.34h.82l3.78,5.18V19.34h.82v6.58h-.82Z"/><path class="cls-1" d="M97.42,19.34h2.22A3.18,3.18,0,0,1,103,22.63a3.18,3.18,0,0,1-3.37,3.29H97.42Zm2.22,5.84a2.46,2.46,0,0,0,2.55-2.55,2.42,2.42,0,0,0-2.55-2.55h-1.4v5.1Z"/><path class="cls-1" d="M108.36,24.35a2.69,2.69,0,0,0,2.06.91c1.15,0,1.56-.66,1.56-1.15,0-.82-.82-1-1.65-1.23-1.07-.25-2.22-.58-2.22-1.89a2,2,0,0,1,2.22-1.81,3,3,0,0,1,2.3.9l-.49.58a2.38,2.38,0,0,0-1.89-.82c-.82,0-1.32.41-1.32,1.07s.74.82,1.56,1.07c1.07.25,2.3.66,2.3,2,0,1-.66,2-2.47,2a3.21,3.21,0,0,1-2.55-1.07Z"/></svg>