<svg id="Layer_1" data-name="Layer 1" xmlns="http://www.w3.org/2000/svg" viewBox="0 0 122.31 26"><defs><style>.cls-1{fill:#484848;}</style></defs><title>dewynters-de</title><path class="cls-1" d="M115.61,11.69a4.53,4.53,0,0,1-2.29-.57,11.55,11.55,0,0,1-1.8-1.31l-1,3-2.86-4.17A6.41,6.41,0,0,0,109.15,8a3.64,3.64,0,0,0,1.47-1.88,3.31,3.31,0,0,0,1.06,2,7.37,7.37,0,0,0,3.51,1.47l.57.08c1.14.16,1.55.49,1.55,1C117.33,11.28,116.67,11.69,115.61,11.69ZM104,6.95h-1V3.84h.82c1.15,0,1.88.57,1.88,1.55S105.06,6.95,104,6.95ZM7.85,10.38a3.15,3.15,0,0,1-1.8.74h-1V4.66h.82C7.52,4.66,8.67,6,8.67,7.85A3.38,3.38,0,0,1,7.85,10.38ZM120.93,6.95a2.91,2.91,0,0,0-1-.65,3.39,3.39,0,0,1-.49-.16,12,12,0,0,0-2.37-.57H117c-.9-.16-1.31-.49-1.31-1.06s.41-.82,1.23-.82a8.52,8.52,0,0,1,3.35.9l1.31-3.43A10.38,10.38,0,0,0,117.16,0c-3.27,0-5.64,1.47-6.3,3.92-.33-2.29-2.13-3.43-5.15-3.43H98V11.61h-6.3V9.73h4.17V6.05H91.74V4.17h5V.49h-29V7.77h-.08L63.45.49H53.23l-2,4-2-4H40.64L38.75,8.34h-.08L36.79.49H32.46l-2,7.85h-.08L28.53.49H13.82V6.62A6.78,6.78,0,0,0,6.7.57H0V15.29H6.79a6.76,6.76,0,0,0,7-6.13v6.13H24.53v-3.6H18.89V9.81h4.17V6.05H18.89V4.17h5.64l3,11h5.07l2-8.42h.08l1.88,8.42h5.07L45,2.78l3.92,6v6.46H54V8.75l4.5-6.95V15.29h5.07V8h.08l4.17,7.28h5.07V4.17h4.58V15.29h5V4.17h4.33V15.29h16.43V9.57h.08l3.11,5.72h6l-.65-.9a4,4,0,0,0,.57.25,8.38,8.38,0,0,0,3.84,1c3.6,0,6.21-2.29,6.21-5.48A4.62,4.62,0,0,0,120.93,6.95Z"/><path class="cls-1" d="M30.17,19.13a3.06,3.06,0,0,1,2.53,1.23l-.65.41a2.59,2.59,0,0,0-1.88-.9,2.49,2.49,0,0,0-2.53,2.7,2.54,2.54,0,0,0,2.53,2.7,2.26,2.26,0,0,0,1.72-.74V23.22H29.68v-.74h3v2.37A3.37,3.37,0,0,1,30.17,26a3.27,3.27,0,0,1-3.35-3.35A3.26,3.26,0,0,1,30.17,19.13Z"/><path class="cls-1" d="M38,19.21h4.25v.74H38.84v2.13h3.43v.74H38.84V25.1h3.43v.74H38Z"/><path class="cls-1" d="M49.63,23.14H48.32v2.62H47.5V19.21h2.62a1.87,1.87,0,0,1,2,2,1.82,1.82,0,0,1-1.72,1.88l1.8,2.7h-1ZM50,19.95H48.32v2.53H50a1.23,1.23,0,0,0,1.31-1.23A1.29,1.29,0,0,0,50,19.95Z"/><path class="cls-1" d="M63,20.28l-2.21,5.48h-.33l-2.21-5.48v5.48H57.4V19.21h1.14l2,5,2-5h1.14v6.54H63Z"/><path class="cls-1" d="M73.34,24.28H70l-.49,1.47h-.9l2.62-6.54h1l2.62,6.54h-.9Zm-3-.74h2.86l-1.39-3.6Z"/><path class="cls-1" d="M80.45,20.44v5.31h-.82V19.21h.82l3.76,5.15V19.21H85v6.54h-.82Z"/><path class="cls-1" d="M92.39,23l-2.62-3.76h1l2,3,2-3h1L93.21,23v2.78h-.82Z"/></svg>