<svg width="36" height="51" viewBox="0 0 36 51" fill="none" xmlns="http://www.w3.org/2000/svg">
<path fill-rule="evenodd" clip-rule="evenodd" d="M16.875 41.3438L10.7812 35.25L9.375 36.6562L17.8125 45.0938L26.25 36.6562L24.8438 35.25L18.75 41.3438V20.625H16.875V41.3438ZM23.4375 0H3.75517C1.68125 0 0 1.68438 0 3.76374V46.8613C0 48.9399 1.67049 50.625 3.74517 50.625H31.8798C33.9482 50.625 35.625 48.9409 35.625 46.8923V14.0625V13.125L24.375 0H23.4375ZM22.5 1.875H3.74171C2.71075 1.875 1.875 2.72862 1.875 3.74148V46.8835C1.875 47.9143 2.72758 48.75 3.74992 48.75H31.8751C32.9106 48.75 33.75 47.9157 33.75 46.8874V15H26.2461C24.1772 15 22.5 13.3377 22.5 11.2389V1.875ZM24.375 2.8125V11.2335C24.375 12.2782 25.22 13.125 26.2439 13.125H33.1874L24.375 2.8125Z" fill="#ABABAB"/>
</svg>
