<svg id="Layer_1" data-name="Layer 1" xmlns="http://www.w3.org/2000/svg" viewBox="0 0 1600 900"><title>dw-logo</title><path d="M0,0V900H1600V0ZM1471.6,545.35c-16.1,0-31.1-4-47.2-12a48.75,48.75,0,0,1-7-3l8,11h-73.3L1313.9,471h-1v70.3H1111.1V404.85h-53.2v136.5H996.7V404.85H943.5v137.6H881.3L830.1,453h-1v89.4H766.9V376.75L711.7,462v79.3H649.5V462l-48.2-73.3-42.2,152.6H496.7L473.6,438h-1l-24.1,103.4H386.3l-37.1-135.5H279.9V429h51.2V473H279.9v24.1h69.3v44.2H217.7V466c-6,45.2-39.1,75.3-86.3,75.3H48.1V360.65h82.3c47.2,0,81.4,29.1,87.4,74.3v-74.3H397.5L420.6,457h1l24.1-96.4h53.2L523,457h1l23.1-96.4H653.5l24.1,49.2,24.1-49.2H827.2L878.4,450h1v-89.4h356.4v45.2h-61.2V429h51.2V473h-51.2v24.1h77.3V360.65h94.4c37.2,0,59.3,14.1,63.3,42.2,8-30.1,37.1-48.2,77.3-48.2,17,0,31.1,4,54.3,14l-16.1,42.2c-20.1-8-29.2-11-41.2-11-10.1,0-15.1,4-15.1,10,0,7.1,5.1,11.1,16.1,13.1h1c16,3,25.1,5,29.1,7,2,1,3,1,6,2,5,2,6,3,12,8,11.1,10.1,15.1,22.1,14.9,38.1C1547.9,517.25,1515.8,545.35,1471.6,545.35Z"/><path d="M120.4,411.85h-10v79.3h12c7,0,16.1-4,22.1-9,7-7,10-17.1,10-31.1C154.5,428,140.5,411.85,120.4,411.85Z"/><path d="M1323.2,401.85h-10V440h12c13.1,0,22.1-8,21.1-19C1346.3,408.85,1337.3,401.85,1323.2,401.85Z"/><path d="M1470,473.15l-7-1c-18.1-3-34.2-10.1-43.2-18.1-7.1-6-11.1-14.1-13.1-24.1a44.86,44.86,0,0,1-18.1,23.1c-4,3-10.1,5-18.1,8l35.1,51.2,12-37.1c11.1,9.1,15.1,12.1,22.1,16.1a55.83,55.83,0,0,0,28.1,7c13,0,21.1-6,21.3-13.1C1489.1,479.15,1484.1,475.15,1470,473.15Z"/></svg>