<svg id="Layer_1" data-name="Layer 1" xmlns="http://www.w3.org/2000/svg" viewBox="0 0 1600 900"><title>dw-logo-black</title><path d="M0,1V901H1600V1ZM1471.6,546.35c-16.1,0-31.1-4-47.2-12a48.75,48.75,0,0,1-7-3l8,11h-73.3L1313.9,472h-1v70.3H1111.1V405.85h-53.2v136.5H996.7V405.85H943.5v137.6H881.3L830.1,454h-1v89.4H766.9V377.75L711.7,463v79.3H649.5V463l-48.2-73.3-42.2,152.6H496.7L473.6,439h-1l-24.1,103.4H386.3l-37.1-135.5H279.9V430h51.2V474H279.9v24.1h69.3v44.2H217.7V467c-6,45.2-39.1,75.3-86.3,75.3H48.1V361.65h82.3c47.2,0,81.4,29.1,87.4,74.3v-74.3H397.5L420.6,458h1l24.1-96.4h53.2L523,458h1l23.1-96.4H653.5l24.1,49.2,24.1-49.2H827.2L878.4,451h1v-89.4h356.4v45.2h-61.2V430h51.2V474h-51.2v24.1h77.3V361.65h94.4c37.2,0,59.3,14.1,63.3,42.2,8-30.1,37.1-48.2,77.3-48.2,17,0,31.1,4,54.3,14l-16.1,42.2c-20.1-8-29.2-11-41.2-11-10.1,0-15.1,4-15.1,10,0,7.1,5.1,11.1,16.1,13.1h1c16,3,25.1,5,29.1,7,2,1,3,1,6,2,5,2,6,3,12,8,11.1,10.1,15.1,22.1,14.9,38.1C1547.9,518.25,1515.8,546.35,1471.6,546.35Z"/><path d="M120.4,412.85h-10v79.3h12c7,0,16.1-4,22.1-9,7-7,10-17.1,10-31.1C154.5,429,140.5,412.85,120.4,412.85Z"/><path d="M1323.2,402.85h-10V441h12c13.1,0,22.1-8,21.1-19C1346.3,409.85,1337.3,402.85,1323.2,402.85Z"/><path d="M1470,474.15l-7-1c-18.1-3-34.2-10.1-43.2-18.1-7.1-6-11.1-14.1-13.1-24.1a44.86,44.86,0,0,1-18.1,23.1c-4,3-10.1,5-18.1,8l35.1,51.2,12-37.1c11.1,9.1,15.1,12.1,22.1,16.1a55.83,55.83,0,0,0,28.1,7c13,0,21.1-6,21.3-13.1C1489.1,480.15,1484.1,476.15,1470,474.15Z"/><path d="M1467.8,499.25a55.83,55.83,0,0,1-28.1-7c-7-4-11-7-22.1-16.1l-12,37.1-35.1-51.2c8-3,14.1-5,18.1-8a44.86,44.86,0,0,0,18.1-23.1c2,10,6,18.1,13.1,24.1,9,8,25.1,15.1,43.2,18.1l7,1c14.1,2,19.1,6,19.1,12-.2,7.1-8.3,13.1-21.3,13.1m-142.6-58.3h-12v-38.1h10c14.1,0,23.1,7,23.1,19.1,1,11-8,19-21.1,19M144.5,483.15c-6,5-15.1,9-22.1,9h-12v-79.3h10c20.1,0,34.1,16.1,34.1,39.2,0,14-3,24.1-10,31.1M1533,440.95c-6-5-7-6-12-8-3-1-4-1-6-2-4-2-13.1-4-29.1-7h-1c-11-2-16.1-6-16.1-13.1,0-6,5-10,15.1-10,12,0,21.1,3,41.2,11l16.1-42.2c-23.2-10-37.3-14-54.3-14-40.2,0-69.3,18.1-77.3,48.2-4-28.1-26.1-42.2-63.3-42.2h-94.4v136.5h-77.3V474h51.2v-44.1h-51.2v-23.1h61.2v-45.2H879.4V451h-1l-51.2-89.4H701.7l-24.1,49.2-24.1-49.2H547.1L524,458h-1l-24.1-96.4H445.7L421.6,458h-1l-23.1-96.4H217.8v74.3c-6-45.2-40.2-74.3-87.4-74.3H48.1v180.7h83.3c47.2,0,80.3-30.1,86.3-75.3v75.3H349.2v-44.2H279.9V474h51.2v-44.1H279.9v-23.1h69.3l37.1,135.5h62.2l24.1-103.4h1l23.1,103.4h62.4l42.2-152.6L649.5,463v79.3h62.2V463l55.2-85.3v165.7h62.2V454h1l51.2,89.4h62.2V405.85h53.2v136.5h61.2V405.85h53.2v136.5h201.8V472h1l38.2,70.3h73.3l-8-11a48.75,48.75,0,0,0,7,3c16.1,8,31.1,12,47.2,12,44.2,0,76.3-28.1,76.3-67.3.2-16-3.8-28-14.9-38.1"/></svg>