<?xml version="1.0" encoding="utf-8"?>
<!-- Generator: Adobe Illustrator 22.1.0, SVG Export Plug-In . SVG Version: 6.00 Build 0)  -->
<svg version="1.1" id="Layer_1" xmlns="http://www.w3.org/2000/svg" xmlns:xlink="http://www.w3.org/1999/xlink" x="0px" y="0px"
	 viewBox="0 0 576 644" style="enable-background:new 0 0 576 644;" xml:space="preserve">
<metadata><?xpacket begin="﻿" id="W5M0MpCehiHzreSzNTczkc9d"?>
<x:xmpmeta xmlns:x="adobe:ns:meta/" x:xmptk="Adobe XMP Core 5.6-c143 79.161356, 2017/09/07-01:11:22        ">
   <rdf:RDF xmlns:rdf="http://www.w3.org/1999/02/22-rdf-syntax-ns#">
      <rdf:Description rdf:about=""/>
   </rdf:RDF>
</x:xmpmeta>
                                                                                                    
                                                                                                    
                                                                                                    
                                                                                                    
                                                                                                    
                                                                                                    
                                                                                                    
                                                                                                    
                                                                                                    
                                                                                                    
                                                                                                    
                                                                                                    
                                                                                                    
                                                                                                    
                                                                                                    
                                                                                                    
                                                                                                    
                                                                                                    
                                                                                                    
                                                                                                    
                           
<?xpacket end="w"?></metadata>
<path d="M592,0.8h-68.6l-23.7,109.1h-0.6L471.7,0.8h-54.2l-27.7,109.3h-0.6L362.8,0.8H193.6v65.7C180.7,26.1,145.8,1.1,98.8,1.1H5.2
	v204.4H-16l78,121v86.8H6v227.1h269.8v-88.7h0.7l48.3,88.7h92.7l-9.7-14.2c2.6,1.5,5.2,2.8,8.4,4.4c20,9.7,39.5,14.6,59.5,14.6
	c56.3,0,96.5-35.1,96.5-84.2c0-20.5-6-35.8-19.2-48c-7-6.3-9.2-7.3-14.7-10c-3.9-1.8-4.5-1.9-7.3-2.9c-5.6-2.4-16.9-4.8-36.5-8.3
	l-1.7-0.4c-13.3-2.4-20.3-8-20.3-16.4c0-8,6.3-12.1,18.6-12.1c15,0,26.9,3.5,51.4,14.2l20.2-52.9c-18.4-8.3-32.1-13.2-45.2-15.6
	V258.5H572v-53.1h-35.9l47.4-172.8L592,0.8z M454.1,412c-29.8,8.9-50.6,28.3-57.9,54.8c-3.3-21.9-15.5-37.5-35.8-46h45.8V258.5h48
	V412z M250.2,128.7h53V78.1h-53V51.7h63.6l36,153.8h-16.9v105.8h-0.7l-60-105.3h51.2v-50.6h-73.2V128.7z M193.6,140.2v65.2H127
	l-28.3,58.4L70.5,206h29.2C146.2,206,180.8,180.6,193.6,140.2z M75.9,58.9h11.9c23,0,38.4,17.9,38.4,44.9c0,15.4-3.8,26.7-11.6,34.2
	c-6.3,6-17.3,10.7-25.5,10.7H75.9V58.9z M85.8,584.3v-29.6h70.7v-56H85.8v-29.2h82.8v-56.3h-33v-87.5l60.8-94v189h1v163.6H85.8z
	 M290.4,512.4h-15.1V465l0.4-0.4H289c17.8,0,28.7,9.1,28.7,23.6C317.7,503,306.9,512.4,290.4,512.4z M316.7,413.2h-46.4v-98.3h0.7
	l56.6,98.7C324,413.4,320.4,413.2,316.7,413.2z M473.7,553.3c17.5,3.1,23.5,6.9,23.5,14.9c0,10.4-10.5,17.4-26.6,17.4
	c-12.9,0-23.8-3.1-36-9.4c-8.7-4.9-14-8.7-28.3-20.2l-14.6,46.8l-44.2-64.1c10.5-3.5,17.1-6.6,23.4-10.4c11.7-7.3,19.5-17,23.4-29.3
	c2.2,12.1,8,23.2,16.2,30.2c11.2,10.1,32.2,18.4,54.2,22.2L473.7,553.3z M420.2,205.4L445,89.1h0.6l26.3,116.3H420.2z"/>
</svg>
