<?xml version="1.0" encoding="utf-8"?>
<!-- Generator: Adobe Illustrator 21.1.0, SVG Export Plug-In . SVG Version: 6.00 Build 0)  -->
<svg version="1.1" id="Layer_1" xmlns="http://www.w3.org/2000/svg" xmlns:xlink="http://www.w3.org/1999/xlink" x="0px" y="0px"
	 viewBox="0 0 1500 190.8" style="enable-background:new 0 0 1500 190.8;" xml:space="preserve">
<g>
	<path d="M1419.7,143.6c-10,0-19.1-2-28.1-7c-7-4-11-7-22.1-16.1l-12,37.1l-35.1-51.2c8-3,14.1-5,18.1-8c9-6,15.1-14.1,18.1-23.1
		c2,10,6,18.1,13.1,24.1c9,8,25.1,15.1,43.2,18.1l7,1c14.1,2,19.1,6,19.1,12C1440.8,137.6,1432.7,143.6,1419.7,143.6 M1277.1,85.3
		h-12V47.2l0,0h10c14.1,0,23.1,7,23.1,19.1C1299.2,77.3,1290.2,85.3,1277.1,85.3 M96.4,127.5c-6,5-15.1,9-22.1,9h-12V57.2h10
		c20.1,0,34.1,16.1,34.1,39.2C106.4,110.4,103.4,120.5,96.4,127.5 M1484.9,85.3c-6-5-7-6-12-8c-3-1-4-1-6-2c-4-2-13.1-4-29.1-7h-1
		c-11-2-16.1-6-16.1-13.1c0-6,5-10,15.1-10c12,0,21.1,3,41.2,11l16.1-42.2C1469.9,4,1455.8,0,1438.8,0c-40.2,0-69.3,18.1-77.3,48.2
		c-4-28.1-26.1-42.2-63.3-42.2h-94.4v136.5h-77.3v-24.1h51.2V74.3h-51.2V51.2h61.2V6H831.3v89.4h-1L779.1,6H653.6l-24.1,49.2
		L605.4,6H499l-23.1,96.4h-1L450.8,6h-53.2l-24.1,96.4h-1L349.4,6H169.7v74.3C163.7,35.1,129.5,6,82.3,6H0v180.7h83.3
		c47.2,0,80.3-30.1,86.3-75.3v75.3h131.5v-44.2h-69.3v-24.1h51.2V74.3h-51.2V51.2h69.3l37.1,135.5h62.2l24.1-103.4h1l23.1,103.4H511
		l42.2-152.6l48.2,73.3v79.3h62.2v-79.3l55.2-85.3v165.7h62.2V98.4h1l51.2,89.4h62.2V50.2h53.2v136.5h61.2V50.2h53.2v136.5h201.8
		v-70.3h1l38.2,70.3h73.3l-8-11c2,1,4,2,7,3c16.1,8,31.1,12,47.2,12c44.2,0,76.3-28.1,76.3-67.3C1500,107.4,1496,95.4,1484.9,85.3"
		/>
</g>
</svg>
