<svg width="45" height="48" viewBox="0 0 45 48" fill="none" xmlns="http://www.w3.org/2000/svg">
<path fill-rule="evenodd" clip-rule="evenodd" d="M23.4698 33.5651L20.471 33.5807H26.4422L26.4775 33.5494L26.3018 33.5503L37.9304 23.153V8.85228C37.9304 7.86775 37.1267 7.06963 36.163 7.06963H9.65179C8.67571 7.06963 7.88445 7.85389 7.88445 8.84071V23.3298L19.4627 33.5459L23.4698 33.5651ZM16.8822 5.30222L22.9074 0L28.9327 5.30222H36.1675C38.1232 5.30222 39.6978 6.88451 39.6978 8.83636V14.7755L45 19.4415V44.1957C45 46.139 43.4146 47.72 41.4588 47.72H4.35599C2.38739 47.72 0.814819 46.1421 0.814819 44.1957V19.4415L6.11704 14.7755V8.83636C6.11704 6.87068 7.69759 5.30222 9.6473 5.30222H16.8822ZM26.3147 5.30222L22.9074 2.29763L19.5001 5.30222H26.3147ZM39.6978 17.1037L42.3489 19.4415L39.6978 21.798V17.1037ZM6.11704 21.798L3.46593 19.4415L6.11704 17.1037V21.798ZM17.6052 35.3481L5.23334 45.9526H40.5815L28.2096 35.3481H17.6052ZM42.6761 45.4669L29.0933 33.6109L43.2326 21.2089V32.6971V44.1853C43.2326 44.6856 43.0187 45.1429 42.6761 45.4669ZM3.13871 45.4669L16.7215 33.6109L2.58223 21.2089V32.6971V44.1853C2.58223 44.6856 2.79609 45.1429 3.13871 45.4669Z" fill="#929292"/>
</svg>
