<?xml version="1.0" encoding="utf-8"?>
<!-- Generator: Adobe Illustrator 21.1.0, SVG Export Plug-In . SVG Version: 6.00 Build 0)  -->
<svg version="1.1" id="Layer_1" xmlns="http://www.w3.org/2000/svg" xmlns:xlink="http://www.w3.org/1999/xlink" x="0px" y="0px"
	 viewBox="0 0 349 422" style="enable-background:new 0 0 349 422;" xml:space="preserve">
<style type="text/css">
	.st0{fill:#00E4E1;}
	.st1{fill:#ABABAB;}
</style>
<path class="st0" d="M349,0h-39.4L296,62.6h-0.4L280,0h-31.1l-15.9,62.8h-0.4L217.4,0h-97.1v37.7C112.9,14.6,92.9,0.2,65.9,0.2H12.2
	v117.4H0L44.8,187v49.8H12.6v130.4h154.9v-50.9h0.4l27.7,50.9h53.2l-5.6-8.1c1.5,0.9,3,1.6,4.8,2.5c11.5,5.6,22.7,8.4,34.2,8.4
	c32.3,0,55.4-20.1,55.4-48.4c0-11.8-3.4-20.5-11-27.6c-2.4-2.4-5.3-4.4-8.4-5.7c-1.4-0.6-2.8-1.2-4.2-1.7c-3.2-1.4-9.7-2.8-21-4.8
	l-1-0.2c-7.6-1.4-11.6-4.6-11.6-9.4c0-4.6,3.6-6.9,10.7-6.9c8.6,0,15.4,2,29.5,8.1l11.6-30.4c-10.6-4.8-18.4-7.6-25.9-9V148h31.3
	v-30.5h-20.5l27.2-99.2L349,0z M269.8,236.1c-17.1,5.1-29,16.2-33.2,31.5c-1.9-12.6-8.9-21.5-20.6-26.4h26.3V148h27.6L269.8,236.1
	L269.8,236.1z M152.8,73.4h30.4V44.4h-30.4V29.2h36.5l20.7,88.3h-9.7v60.8h-0.4l-34.4-60.5h29.4V88.8h-42L152.8,73.4L152.8,73.4z
	 M120.3,80v37.4H82.1L65.8,151l-16.1-33.2h16.8C93.1,117.8,113,103.2,120.3,80z M52.8,33.4h6.8c13.2,0,22,10.3,22,25.8
	c0,8.8-2.2,15.3-6.7,19.6c-3.6,3.4-9.9,6.1-14.6,6.1h-7.5V33.4z M58.4,335.1v-17H99v-32.1H58.4v-16.8H106v-32.3H87v-50.2l34.9-54
	v108.5h0.6v93.9L58.4,335.1z M175.9,293.8h-8.7v-27.2l0.2-0.2h7.6c10.2,0,16.5,5.2,16.5,13.6S185.4,293.8,175.9,293.8L175.9,293.8z
	 M191,236.9h-26.6v-56.4h0.4l32.5,56.7C195.2,236.9,193.1,236.9,191,236.9L191,236.9z M281.1,317.3c10,1.8,13.5,4,13.5,8.6
	c0,6-6,10-15.3,10c-7.4,0-13.7-1.8-20.7-5.4c-5-2.8-8-5-16.2-11.6l-8.4,26.9l-25.4-36.8c4.7-1.5,9.2-3.5,13.4-6
	c6.4-3.8,11.2-9.8,13.4-16.8c1.3,7,4.6,13.3,9.3,17.3c6.4,5.8,18.5,10.6,31.1,12.8L281.1,317.3z M250.4,117.5l14.2-66.8h0.4
	l15.1,66.8L250.4,117.5L250.4,117.5z"/>
<path class="st1" d="M15.9,399h8.5v-1h-7.3v-5.3h7.2v-1h-7.2v-4.9h7.3v-1h-8.5V399z"/>
<path class="st1" d="M44.7,399h1.4l-5.4-6.9l5.1-6.5h-1.4l-4.3,5.7l-4.3-5.7h-1.5l5.1,6.5l-5.4,6.8h1.4l4.6-6L44.7,399z"/>
<path class="st1" d="M56.1,399h1.1v-5.5h3.9c2.5,0,4-1.8,4-3.9s-1.5-3.9-4-3.9h-5V399z M63.9,389.6c0,1.7-1.2,2.9-2.9,2.9h-3.7v-5.7
	H61C62.7,386.7,63.9,387.9,63.9,389.6z"/>
<path class="st1" d="M75.5,399H84v-1h-7.3v-5.3h7.2v-1h-7.2v-4.9H84v-1h-8.5V399z"/>
<path class="st1" d="M102.6,399h1.4l-3.9-5.6c2-0.1,3.7-1.4,3.7-3.8c0-2.4-1.8-3.9-4.1-3.9h-5V399H96v-5.5h2.9L102.6,399z
	 M102.7,389.6c0,1.7-1.2,2.9-3,2.9H96v-5.7h3.7C101.5,386.7,102.7,387.9,102.7,389.6z"/>
<path class="st1" d="M114.7,399h1.1v-13.3h-1.1V399z"/>
<path class="st1" d="M127.1,399h8.5v-1h-7.3v-5.3h7.2v-1h-7.2v-4.9h7.3v-1h-8.5V399z"/>
<path class="st1" d="M156,399h1.1v-13.3H156V397l-8.4-11.4h-1.2V399h1.1v-11.5L156,399z"/>
<path class="st1" d="M174.6,399.2c2.2,0,3.7-0.9,4.9-2.4l-1-0.6c-0.8,1.2-2.3,1.9-3.9,1.9c-3.1,0-5.5-2.4-5.5-5.9
	c0-3.5,2.4-5.9,5.5-5.9c1.6,0,3.1,0.8,3.9,1.9l1-0.6c-1.1-1.4-2.7-2.4-4.9-2.4c-3.7,0-6.7,2.8-6.7,6.9S170.9,399.2,174.6,399.2z"/>
<path class="st1" d="M189.9,399h8.5v-1H191v-5.3h7.2v-1H191v-4.9h7.3v-1h-8.5V399z"/>
<path class="st1" d="M222.3,399h1.1v-13.3h-1.1V399z"/>
<path class="st1" d="M234,397.1c1,1.2,2.7,2.1,4.9,2.1c3.6,0,4.7-2.1,4.7-3.8c0-2.7-2.4-3.4-4.5-4c-1.8-0.5-3.5-0.9-3.5-2.5
	c0-1.4,1.3-2.5,3.1-2.5c1.5,0,2.9,0.5,3.8,1.7l0.8-0.8c-1-1.2-2.5-1.9-4.5-1.9c-2.4,0-4.4,1.4-4.4,3.6c0,2.5,2.2,3.1,4.3,3.6
	c1.9,0.5,3.7,1,3.7,2.9c0,1.1-0.8,2.7-3.5,2.7c-1.9,0-3.3-0.9-4.2-1.9L234,397.1z"/>
<path class="st1" d="M144.9,421h8.5v-1h-7.3v-5.3h7.2v-1h-7.2v-4.9h7.3v-1h-8.5V421z"/>
<path class="st1" d="M168.3,421h1.4l5.5-13.3h-1.3l-4.9,12.1l-4.8-12.1h-1.3L168.3,421z"/>
<path class="st1" d="M185.2,421h8.5v-1h-7.3v-5.3h7.2v-1h-7.2v-4.9h7.3v-1h-8.5V421z"/>
<path class="st1" d="M212.3,421h1.4l-3.9-5.6c2-0.1,3.7-1.4,3.7-3.8c0-2.4-1.8-3.9-4.1-3.9h-5V421h1.1v-5.5h2.9L212.3,421z
	 M212.3,411.6c0,1.7-1.2,2.9-3,2.9h-3.7v-5.7h3.7C211.1,408.7,212.3,409.9,212.3,411.6z"/>
<path class="st1" d="M228,421h1.2v-5.7l5.3-7.6H233l-4.5,6.6l-4.5-6.6h-1.4l5.3,7.6V421z"/>
<path class="st1" d="M247.8,421h1.2v-12.3h4.4v-1h-9.9v1h4.4V421z"/>
<path class="st1" d="M273.3,421h1.2v-13.3h-1.2v6h-8.5v-6h-1.1V421h1.1v-6.3h8.5V421z"/>
<path class="st1" d="M285.7,421h1.1v-13.3h-1.1V421z"/>
<path class="st1" d="M307.7,421h1.1v-13.3h-1.1V419l-8.4-11.4h-1.2V421h1.1v-11.5L307.7,421z"/>
<path class="st1" d="M319.7,414.3c0,4.1,3,6.9,6.8,6.9c2.1,0,3.9-0.9,5.1-2.2v-4.7h-6.2v1h5v3.2c-0.7,0.7-2.1,1.6-3.9,1.6
	c-3.1,0-5.6-2.4-5.6-5.9c0-3.5,2.4-5.9,5.6-5.9c1.7,0,3.2,0.7,4.2,1.9l0.9-0.6c-1.2-1.4-2.8-2.3-5-2.3
	C322.7,407.4,319.7,410.2,319.7,414.3z"/>
</svg>
