<svg id="Layer_1" data-name="Layer 1" xmlns="http://www.w3.org/2000/svg" xmlns:xlink="http://www.w3.org/1999/xlink" viewBox="0 0 326 368"><defs><style>.cls-1{fill:none;}.cls-2{clip-path:url(#clip-path);}.cls-3{fill:#00e4e1;}</style><clipPath id="clip-path"><rect class="cls-1" width="326" height="368"/></clipPath></defs><title>logo-mobile</title><g class="cls-2"><path class="cls-3" d="M335-2H295.62L282,60.64h-.35L265.95-2H234.84l-15.9,62.76h-.35L203.44-2H106.31V35.72C98.91,12.58,78.88-1.83,51.9-1.83H-1.83V115.53H-14L30.77,185v49.84H-1.37v130.4H153.5V314.31h.4l27.72,50.93h53.21l-5.57-8.15c1.49.86,3,1.61,4.82,2.53,11.48,5.57,22.67,8.38,34.15,8.38,32.32,0,55.39-20.15,55.39-48.35,0-11.77-3.45-20.55-11-27.56a28,28,0,0,0-8.44-5.74,34.32,34.32,0,0,0-4.19-1.66c-3.21-1.38-9.7-2.76-21-4.77l-1-.23c-7.63-1.38-11.65-4.59-11.65-9.42,0-4.59,3.62-6.95,10.68-6.95,8.61,0,15.44,2,29.5,8.15l11.6-30.37c-10.56-4.77-18.42-7.58-25.95-9V146h31.28V115.53H302.91l27.21-99.22ZM255.84,234.1c-17.11,5.11-29,16.25-33.24,31.46-1.89-12.57-8.9-21.53-20.55-26.41h26.29V146H255.9V234.1ZM138.8,71.44h30.42V42.38H138.8V27.23h36.51L196,115.53h-9.7v60.75h-.4l-34.44-60.46h29.39V86.77h-42V71.44ZM106.31,78v37.44H68.08L51.78,149,35.65,115.82H52.41C79.1,115.82,99,101.24,106.31,78ZM38.75,31.36h6.83c13.2,0,22,10.28,22,25.78,0,8.84-2.18,15.33-6.66,19.64-3.62,3.44-9.93,6.14-14.64,6.14H38.75Zm5.68,301.73v-17H85V283.94H44.43V267.17H92V234.85H73V184.61l34.9-54V239.15h.57v93.93Zm117.44-41.34h-8.67V264.59l.23-.23h7.63c10.22,0,16.47,5.23,16.47,13.55S171.35,291.75,161.88,291.75Zm15.1-56.9H150.34V178.41h.4l32.49,56.67C181.16,234.91,179.1,234.85,177,234.85Zm90.12,80.44c10,1.78,13.49,4,13.49,8.56,0,6-6,10-15.27,10-7.4,0-13.66-1.78-20.67-5.4-5-2.81-8-5-16.24-11.6L220,343.71l-25.37-36.8a62.81,62.81,0,0,0,13.43-6,30.18,30.18,0,0,0,13.43-16.82c1.26,6.95,4.59,13.32,9.3,17.34,6.43,5.8,18.48,10.57,31.11,12.75ZM236.38,115.53,250.62,48.7H251l15.1,66.78H236.38Z"/></g></svg>