<svg width="359" height="434" viewBox="0 0 359 434" fill="none" xmlns="http://www.w3.org/2000/svg">
<mask id="path-1-outside-1" maskUnits="userSpaceOnUse" x="0" y="0" width="359" height="376" fill="black">
<rect fill="white" width="359" height="376"/>
<path d="M355 3H315.623L302.019 65.6428H301.674L285.946 3H254.835L238.935 65.7576H238.59L223.436 3H126.313V40.7235C118.908 17.5841 98.8753 3.17225 71.8967 3.17225H18.1691V120.534H6L50.773 190.01V239.848H18.6283V370.244H173.497V319.314H173.899L201.624 370.244H254.835L249.267 362.091C250.759 362.952 252.252 363.698 254.089 364.617C265.569 370.186 276.762 373 288.242 373C320.559 373 343.635 352.846 343.635 324.654C343.635 312.884 340.19 304.099 332.613 297.094C328.595 293.476 327.333 292.902 324.176 291.352C321.937 290.318 321.592 290.261 319.985 289.687C316.771 288.309 310.284 286.931 299.034 284.921L298.058 284.691C290.424 283.313 286.405 280.098 286.405 275.275C286.405 270.682 290.022 268.327 297.082 268.327C305.692 268.327 312.523 270.337 326.586 276.481L338.181 246.107C327.62 241.341 319.756 238.528 312.236 237.15V151.023H343.52V120.534H322.913L350.121 21.3163L355 3ZM275.844 239.102C258.738 244.212 246.799 255.351 242.608 270.567C240.714 257.992 233.711 249.035 222.059 244.155H248.348V151.023H275.901V239.102H275.844ZM158.802 76.4373H189.225V47.3839H158.802V32.2256H195.31L215.974 120.534H206.273V181.282H205.871L171.431 120.821H200.82V91.7678H158.802V76.4373V76.4373ZM126.313 83.0403V120.477H88.0839L71.7819 154.009L55.6521 120.821H72.4133C99.1049 120.821 118.966 106.237 126.313 83.0403ZM58.7518 36.3597H65.5826C78.7849 36.3597 87.6247 46.6375 87.6247 62.1403C87.6247 70.9826 85.4434 77.4708 80.9661 81.7772C77.3498 85.2222 71.0357 87.9209 66.3288 87.9209H58.7518V36.3597ZM64.4345 338.09V321.094H105.017V288.94H64.4345V272.174H111.963V239.848H93.0204V189.608L127.92 135.635V244.155H128.494V338.09H64.4345ZM181.878 296.749H173.21V269.591L173.44 269.361H181.074C191.291 269.361 197.548 274.586 197.548 282.912C197.548 291.352 191.349 296.749 181.878 296.749ZM196.974 239.848H170.34V183.407H170.742L203.231 240.078C201.164 239.906 199.098 239.848 196.974 239.848ZM287.094 320.29C297.139 322.07 300.584 324.252 300.584 328.846C300.584 334.817 294.556 338.836 285.315 338.836C277.91 338.836 271.653 337.056 264.65 333.439C259.656 330.626 256.614 328.444 248.406 321.841L240.025 348.712L214.654 311.908C220.681 309.898 224.469 308.118 228.086 305.936C234.802 301.745 239.279 296.175 241.518 289.113C242.78 296.06 246.11 302.434 250.817 306.453C257.246 312.252 269.3 317.018 281.928 319.2L287.094 320.29ZM256.385 120.534L270.62 53.6999H270.964L286.061 120.477H256.385V120.534Z"/>
</mask>
<path d="M355 3H315.623L302.019 65.6428H301.674L285.946 3H254.835L238.935 65.7576H238.59L223.436 3H126.313V40.7235C118.908 17.5841 98.8753 3.17225 71.8967 3.17225H18.1691V120.534H6L50.773 190.01V239.848H18.6283V370.244H173.497V319.314H173.899L201.624 370.244H254.835L249.267 362.091C250.759 362.952 252.252 363.698 254.089 364.617C265.569 370.186 276.762 373 288.242 373C320.559 373 343.635 352.846 343.635 324.654C343.635 312.884 340.19 304.099 332.613 297.094C328.595 293.476 327.333 292.902 324.176 291.352C321.937 290.318 321.592 290.261 319.985 289.687C316.771 288.309 310.284 286.931 299.034 284.921L298.058 284.691C290.424 283.313 286.405 280.098 286.405 275.275C286.405 270.682 290.022 268.327 297.082 268.327C305.692 268.327 312.523 270.337 326.586 276.481L338.181 246.107C327.62 241.341 319.756 238.528 312.236 237.15V151.023H343.52V120.534H322.913L350.121 21.3163L355 3ZM275.844 239.102C258.738 244.212 246.799 255.351 242.608 270.567C240.714 257.992 233.711 249.035 222.059 244.155H248.348V151.023H275.901V239.102H275.844ZM158.802 76.4373H189.225V47.3839H158.802V32.2256H195.31L215.974 120.534H206.273V181.282H205.871L171.431 120.821H200.82V91.7678H158.802V76.4373V76.4373ZM126.313 83.0403V120.477H88.0839L71.7819 154.009L55.6521 120.821H72.4133C99.1049 120.821 118.966 106.237 126.313 83.0403ZM58.7518 36.3597H65.5826C78.7849 36.3597 87.6247 46.6375 87.6247 62.1403C87.6247 70.9826 85.4434 77.4708 80.9661 81.7772C77.3498 85.2222 71.0357 87.9209 66.3288 87.9209H58.7518V36.3597ZM64.4345 338.09V321.094H105.017V288.94H64.4345V272.174H111.963V239.848H93.0204V189.608L127.92 135.635V244.155H128.494V338.09H64.4345ZM181.878 296.749H173.21V269.591L173.44 269.361H181.074C191.291 269.361 197.548 274.586 197.548 282.912C197.548 291.352 191.349 296.749 181.878 296.749ZM196.974 239.848H170.34V183.407H170.742L203.231 240.078C201.164 239.906 199.098 239.848 196.974 239.848ZM287.094 320.29C297.139 322.07 300.584 324.252 300.584 328.846C300.584 334.817 294.556 338.836 285.315 338.836C277.91 338.836 271.653 337.056 264.65 333.439C259.656 330.626 256.614 328.444 248.406 321.841L240.025 348.712L214.654 311.908C220.681 309.898 224.469 308.118 228.086 305.936C234.802 301.745 239.279 296.175 241.518 289.113C242.78 296.06 246.11 302.434 250.817 306.453C257.246 312.252 269.3 317.018 281.928 319.2L287.094 320.29ZM256.385 120.534L270.62 53.6999H270.964L286.061 120.477H256.385V120.534Z" stroke="white" stroke-width="6" mask="url(#path-1-outside-1)"/>
<path d="M17.7159 408H27.3299V406.372H19.5419V401.312H27.1759V399.684H19.5419V394.954H27.3299V393.326H17.7159V408Z" fill="#ABABAB"/>
<path d="M49.1833 408H51.3833L45.6853 400.454L51.0533 393.326H48.8313L44.4973 399.2L40.1413 393.326H37.9193L43.3093 400.476L37.5893 408H39.8113L44.4973 401.752L49.1833 408Z" fill="#ABABAB"/>
<path d="M62.1929 408H64.0189V402.17H68.0889C70.9929 402.17 72.6869 400.146 72.6869 397.748C72.6869 395.35 71.0369 393.326 68.0889 393.326H62.1929V408ZM70.7949 397.748C70.7949 399.398 69.6069 400.542 67.8689 400.542H64.0189V394.954H67.8689C69.6069 394.954 70.7949 396.098 70.7949 397.748Z" fill="#ABABAB"/>
<path d="M83.905 408H93.519V406.372H85.731V401.312H93.365V399.684H85.731V394.954H93.519V393.326H83.905V408Z" fill="#ABABAB"/>
<path d="M113.722 408H115.878L111.918 402.016C113.92 401.84 115.724 400.388 115.724 397.748C115.724 395.042 113.81 393.326 111.126 393.326H105.23V408H107.056V402.17H109.982L113.722 408ZM113.832 397.748C113.832 399.398 112.644 400.564 110.906 400.564H107.056V394.954H110.906C112.644 394.954 113.832 396.098 113.832 397.748Z" fill="#ABABAB"/>
<path d="M127.415 408H129.241V393.326H127.415V408Z" fill="#ABABAB"/>
<path d="M141.479 408H151.093V406.372H143.305V401.312H150.939V399.684H143.305V394.954H151.093V393.326H141.479V408Z" fill="#ABABAB"/>
<path d="M173.188 408H174.948V393.326H173.122V404.92L164.674 393.326H162.804V408H164.63V396.164L173.188 408Z" fill="#ABABAB"/>
<path d="M194.066 408.264C196.728 408.264 198.488 407.032 199.72 405.36L198.158 404.502C197.322 405.756 195.804 406.636 194.066 406.636C190.92 406.636 188.478 404.15 188.478 400.674C188.478 397.176 190.92 394.712 194.066 394.712C195.804 394.712 197.322 395.614 198.158 396.846L199.698 395.988C198.532 394.338 196.728 393.084 194.066 393.084C189.908 393.084 186.586 396.164 186.586 400.674C186.586 405.184 189.908 408.264 194.066 408.264Z" fill="#ABABAB"/>
<path d="M210.848 408H220.462V406.372H212.674V401.312H220.308V399.684H212.674V394.954H220.462V393.326H210.848V408Z" fill="#ABABAB"/>
<path d="M246.645 408H248.471V393.326H246.645V408Z" fill="#ABABAB"/>
<path d="M259.829 405.932C261.039 407.296 262.909 408.264 265.461 408.264C269.421 408.264 270.873 406.086 270.873 403.952C270.873 400.872 268.145 400.124 265.747 399.486C263.877 398.98 262.183 398.54 262.183 397.066C262.183 395.68 263.437 394.734 265.197 394.734C266.803 394.734 268.343 395.284 269.443 396.494L270.543 395.152C269.311 393.854 267.573 393.106 265.329 393.106C262.447 393.106 260.291 394.756 260.291 397.176C260.291 400.058 262.909 400.718 265.263 401.334C267.199 401.862 268.981 402.346 268.981 404.106C268.981 405.228 268.145 406.636 265.527 406.636C263.459 406.636 261.875 405.624 260.907 404.546L259.829 405.932Z" fill="#ABABAB"/>
<path d="M138.64 433H148.254V431.372H140.466V426.312H148.1V424.684H140.466V419.954H148.254V418.326H138.64V433Z" fill="#ABABAB"/>
<path d="M164.343 433H166.609L172.527 418.326H170.437L165.487 430.998L160.537 418.326H158.447L164.343 433Z" fill="#ABABAB"/>
<path d="M183.246 433H192.86V431.372H185.072V426.312H192.706V424.684H185.072V419.954H192.86V418.326H183.246V433Z" fill="#ABABAB"/>
<path d="M213.063 433H215.219L211.259 427.016C213.261 426.84 215.065 425.388 215.065 422.748C215.065 420.042 213.151 418.326 210.467 418.326H204.571V433H206.397V427.17H209.323L213.063 433ZM213.173 422.748C213.173 424.398 211.985 425.564 210.247 425.564H206.397V419.954H210.247C211.985 419.954 213.173 421.098 213.173 422.748Z" fill="#ABABAB"/>
<path d="M230.68 433H232.506V426.796L238.27 418.326H236.136L231.582 425.146L227.028 418.326H224.894L230.68 426.796V433Z" fill="#ABABAB"/>
<path d="M252.614 433H254.44V419.954H259.104V418.326H247.972V419.954H252.614V433Z" fill="#ABABAB"/>
<path d="M280.736 433H282.562V418.326H280.736V424.64H272.156V418.326H270.33V433H272.156V426.268H280.736V433Z" fill="#ABABAB"/>
<path d="M294.793 433H296.619V418.326H294.793V433Z" fill="#ABABAB"/>
<path d="M319.24 433H321V418.326H319.174V429.92L310.726 418.326H308.856V433H310.682V421.164L319.24 433Z" fill="#ABABAB"/>
<path d="M332.638 425.674C332.638 430.228 336.004 433.286 340.184 433.286C342.582 433.286 344.584 432.274 345.948 430.756V425.454H339.084V427.082H344.122V430.074C343.396 430.8 341.944 431.658 340.184 431.658C336.972 431.658 334.53 429.15 334.53 425.674C334.53 422.176 336.972 419.712 340.184 419.712C341.944 419.712 343.506 420.548 344.43 421.736L345.882 420.834C344.584 419.228 342.78 418.084 340.184 418.084C336.004 418.084 332.638 421.12 332.638 425.674Z" fill="#ABABAB"/>
</svg>
