<svg id="Layer_1" data-name="Layer 1" xmlns="http://www.w3.org/2000/svg" viewBox="0 0 1335 217"><defs><style>.cls-1{fill:#ababab;}.cls-2{fill:#00e4e1;}</style></defs><title>logo</title><path class="cls-1" d="M221.69,216h16.92v-2.08H224V203.36h14.36v-2.08H224V191.4h14.64v-2.08H221.69Z"/><path class="cls-1" d="M279.15,216H282l-10.72-13.72,10.12-13h-2.88l-8.68,11.32-8.64-11.32h-2.92l10.16,13L257.67,216h2.88l9.28-12Z"/><path class="cls-1" d="M302,216h2.28V204.92H312a7.6,7.6,0,0,0,8-7.8c0-4.2-2.92-7.8-8-7.8H302Zm15.64-18.88a5.52,5.52,0,0,1-5.88,5.72h-7.48V191.4h7.48A5.52,5.52,0,0,1,317.69,197.12Z"/><path class="cls-1" d="M340.9,216h16.92v-2.08H343.18V203.36h14.36v-2.08H343.18V191.4h14.64v-2.08H340.9Z"/><path class="cls-1" d="M395.12,216h2.76l-7.72-11.2a7.35,7.35,0,0,0,7.4-7.68c0-4.88-3.52-7.8-8.12-7.8h-10V216h2.28V205h5.88Zm0-18.88a5.59,5.59,0,0,1-5.92,5.76h-7.48V191.4h7.48A5.56,5.56,0,0,1,395.16,197.12Z"/><path class="cls-1" d="M419.23,216h2.28V189.32h-2.28Z"/><path class="cls-1" d="M444.14,216h16.92v-2.08H446.42V203.36h14.36v-2.08H446.42V191.4h14.64v-2.08H444.14Z"/><path class="cls-1" d="M501.79,216H504V189.32h-2.28V212L485,189.32h-2.32V216H485V193Z"/><path class="cls-1" d="M539.12,216.48a12,12,0,0,0,9.8-4.76l-1.92-1.2a9.74,9.74,0,0,1-7.88,3.88c-6.2,0-11-4.84-11-11.72s4.84-11.72,11-11.72a9.74,9.74,0,0,1,7.88,3.88l1.92-1.24a12.08,12.08,0,0,0-9.8-4.72c-7.48,0-13.44,5.6-13.44,13.8S531.64,216.48,539.12,216.48Z"/><path class="cls-1" d="M569.56,216h16.92v-2.08H571.84V203.36H586.2v-2.08H571.84V191.4h14.64v-2.08H569.56Z"/><path class="cls-1" d="M634.49,216h2.28V189.32h-2.28Z"/><path class="cls-1" d="M657.91,212.24a12.27,12.27,0,0,0,9.76,4.24c7.2,0,9.48-4.12,9.48-7.56,0-5.4-4.72-6.76-9-8-3.64-1-7-1.88-7-5,0-2.88,2.68-4.92,6.24-4.92a9.56,9.56,0,0,1,7.64,3.36l1.52-1.68a11.46,11.46,0,0,0-9-3.76c-4.84,0-8.76,2.76-8.76,7.12,0,4.92,4.48,6.12,8.68,7.28,3.76,1,7.32,2,7.32,5.8,0,2.28-1.56,5.32-7,5.32a10.87,10.87,0,0,1-8.32-3.88Z"/><path class="cls-1" d="M725,216h16.92v-2.08H727.27V203.36h14.36v-2.08H727.27V191.4h14.64v-2.08H725Z"/><path class="cls-1" d="M771.77,216h2.84l10.92-26.68h-2.64l-9.72,24.12-9.68-24.12h-2.64Z"/><path class="cls-1" d="M805.46,216h16.92v-2.08H807.74V203.36H822.1v-2.08H807.74V191.4h14.64v-2.08H805.46Z"/><path class="cls-1" d="M859.68,216h2.76l-7.72-11.2a7.35,7.35,0,0,0,7.4-7.68c0-4.88-3.52-7.8-8.12-7.8H844V216h2.28V205h5.88Zm0-18.88a5.59,5.59,0,0,1-5.92,5.76h-7.48V191.4h7.48A5.56,5.56,0,0,1,859.72,197.12Z"/><path class="cls-1" d="M891.09,216h2.32V204.6L904,189.32h-2.76l-9,13.12-9-13.12h-2.76l10.6,15.28Z"/><path class="cls-1" d="M930.73,216h2.32V191.4h8.72v-2.08H922v2.08h8.72Z"/><path class="cls-1" d="M981.71,216H984V189.32h-2.32v11.92H964.79V189.32h-2.28V216h2.28V203.32h16.92Z"/><path class="cls-1" d="M1006.64,216h2.28V189.32h-2.28Z"/><path class="cls-1" d="M1050.62,216h2.24V189.32h-2.28V212l-16.72-22.72h-2.32V216h2.28V193Z"/><path class="cls-1" d="M1074.51,202.68c0,8.24,6,13.84,13.52,13.84a13.47,13.47,0,0,0,10.12-4.44v-9.32h-12.36v2h10.08v6.4a11.35,11.35,0,0,1-7.84,3.24c-6.28,0-11.12-4.88-11.12-11.76S1081.75,191,1088,191a10.87,10.87,0,0,1,8.32,3.72l1.72-1.24a12.67,12.67,0,0,0-10-4.56C1080.55,188.88,1074.51,194.44,1074.51,202.68Z"/><path class="cls-2" d="M1261.73,126.88a49.71,49.71,0,0,1-25-6.21c-6.25-3.55-9.82-6.21-19.63-14.2l-10.71,32.83-31.23-45.25c7.14-2.66,12.49-4.44,16.06-7.1a39.43,39.43,0,0,0,16.06-20.41c1.79,8.87,5.36,16,11.6,21.29,8,7.1,22.31,13.31,38.37,16l6.25.89c12.49,1.77,16.95,5.32,16.95,10.65C1280.47,122.44,1273.34,126.88,1261.73,126.88ZM1135,75.42h-10.71V41.7h8.92c12.49,0,20.52,6.21,20.52,16.86C1154.66,69.21,1146.63,75.42,1135,75.42ZM85.66,112.68c-5.35,4.44-13.38,8-19.63,8H55.32V50.57h8.92c17.85,0,30.34,14.2,30.34,34.6C94.59,97.6,91.91,106.47,85.66,112.68ZM1319.74,75.42c-5.36-4.44-6.25-5.32-10.71-7.1-2.68-.89-3.57-.89-5.36-1.77-3.57-1.77-11.6-3.55-25.87-6.21h-.9c-9.81-1.77-14.27-5.32-14.27-11.53,0-5.32,4.46-8.87,13.38-8.87,10.71,0,18.74,2.66,36.59,9.76l14.27-37.27C1306.35,3.55,1293.86,0,1278.69,0,1243,0,1217.12,16,1210,42.59c-3.57-24.84-23.2-37.27-56.22-37.27h-83.87V126H1001.2V105.58h45.51V65.66H1001.2V45.25h54.43V5.32H738.84v79H738l-45.51-79H580.9L559.48,48.8,538.07,5.32H443.48L423,90.5h-.89L401.54,5.32H354.25L332.83,90.5h-.89L311.42,5.32H150.8V71.87C145.45,31.94,115.11,6.21,73.17,6.21H0V165.92H74.06c41.94,0,71.39-26.62,76.74-66.54v66.54H267.7v-39H206.13V106.47h45.51V65.66H206.13V45.25H267.7L300.7,165H356l21.42-91.39h.89L398.86,165h55.32L490.77,30.17,533.6,94.94V165h55.32V94.94L638,19.52v146.4h55.32V87h.89l45.51,79H795V45.25h50V165.92h54.43V45.25h47.29V165.92H1126.1V103.81h.9l33.9,62.11H1226l-7.14-9.76a43.53,43.53,0,0,0,6.25,2.66c14.28,7.1,27.66,10.65,41.94,10.65,39.26,0,67.82-24.84,67.82-59.45C1333.12,94.94,1329.55,84.29,1319.74,75.42Z"/></svg>