<svg width="1132" height="207" viewBox="0 0 1132 207" fill="none" xmlns="http://www.w3.org/2000/svg">
<path fill-rule="evenodd" clip-rule="evenodd" d="M1062.66 90.4944C1049.13 88.251 1037.09 83.0163 1030.33 77.0337C1026.26 73.565 1023.53 69.2023 1021.81 63.9458C1021.31 62.4029 1020.89 60.783 1020.55 59.0862C1020.02 60.6628 1019.37 62.1984 1018.59 63.6834C1016.05 68.5374 1012.19 72.8501 1007.01 76.2859C1004.51 78.1526 1000.96 79.5016 996.378 81.1944C996.165 81.2733 995.949 81.3529 995.731 81.4333C995.004 81.7014 994.252 81.9787 993.475 82.2684L1019.8 120.407L1028.82 92.7379C1029.71 93.4617 1030.54 94.1337 1031.32 94.7603C1037.77 99.9594 1040.67 102.033 1045.37 104.703C1052.14 108.442 1058.9 109.938 1066.43 109.938C1076.2 109.938 1082.22 106.199 1082.22 100.216C1082.22 95.7291 1078.46 92.7379 1067.93 91.2422L1062.66 90.4944ZM1046.84 102.087C1041.81 99.2285 1038.96 97.1145 1030.72 90.4107L1027.32 87.6526L1018.82 113.716L998.137 83.7426C999.708 83.1602 1001.18 82.6029 1002.52 82.0487C1004.82 81.0941 1006.95 80.0613 1008.74 78.7421C1013.45 75.6012 1017.19 71.7582 1019.9 67.4304C1021.77 72.0216 1024.5 76.0078 1028.36 79.2996C1035.68 85.7621 1048.29 91.1539 1062.17 93.4541L1062.21 93.4597L1067.51 94.2124C1072.64 94.9413 1075.67 95.9869 1077.36 97.1079C1078.83 98.0796 1079.22 99.0347 1079.22 100.216C1079.22 102.022 1078.38 103.551 1076.41 104.767C1074.33 106.056 1070.99 106.938 1066.43 106.938C1059.35 106.938 1053.1 105.544 1046.84 102.087ZM975.425 52.3558C975.425 43.382 968.656 38.1473 958.127 38.1473H950.607V66.5643H959.631C969.408 66.5643 976.177 61.3296 975.425 52.3558ZM953.607 63.5643H959.631C964.027 63.5643 967.392 62.3846 969.518 60.5527C971.553 58.7988 972.738 56.2133 972.435 52.6064L972.425 52.4813V52.3558C972.425 48.6946 971.082 46.032 968.839 44.22C966.518 42.3443 962.932 41.1473 958.127 41.1473H953.607V63.5643ZM1117.27 64.2955L1117.32 64.3388C1126.37 72.5175 1129.53 82.3397 1131.07 95.3766L1131.09 95.5523V95.7291C1131.09 126.916 1105.3 148.833 1070.94 148.833C1060.12 148.833 1049.92 146.51 1039.4 141.945L1042.25 145.842H979.661L955.111 100.872V145.842H797.945V44.1386H764.085V145.842H712.209V44.1386H676.093V145.842H624.731L590.357 86.1947V145.842H537.729V29.5624L502.365 83.9065V145.094H449.737V83.9184L417.796 35.6157L388.098 145.094H336.774L321.447 76.8442L305.454 145.094H254.162L226.336 44.1386H179.728V55.3383H218.083V95.7379H179.728V106.938H231.621V145.842H127.1V108.259C123.295 116.598 117.96 123.832 111.302 129.673C99.5135 140.016 83.7475 145.842 65.4217 145.842H0V5.23471H64.6696C82.966 5.23471 98.9062 10.8548 110.886 20.9946C117.718 26.7775 123.207 33.9848 127.1 42.3553V4.48689H267.835L283.2 68.2546L299.232 4.48689H343.794L359.105 68.0306L374.415 4.48689H458.364L474.547 37.3407L490.73 4.48689H588.339L622.713 64.1337V4.48689H895.697V44.1386H849.821V55.3383H888.177V94.9901H849.821V106.19H901.731V4.48689H975.425C989.663 4.48689 1001.41 7.15717 1010.07 12.8295C1016.21 16.8571 1020.67 22.3096 1023.34 29.0853C1032.71 10.4878 1053.89 0 1080.71 0C1094.1 0 1105.07 3.17266 1122.52 10.7157L1125.16 11.857L1111.01 48.7882L1108.18 47.6653C1093.12 41.6728 1086.84 39.6517 1078.46 39.6517C1075.03 39.6517 1072.9 40.3425 1071.71 41.1705C1070.66 41.9049 1070.18 42.8445 1070.18 44.1299C1070.18 45.896 1070.75 47.071 1071.97 48.0559C1073.34 49.1548 1075.69 50.1404 1079.48 50.8515H1080.24L1080.51 50.9023C1086.53 52.0251 1091.29 52.9706 1094.94 53.8291C1098.52 54.6722 1101.26 55.4833 1103.11 56.3998C1103.64 56.6651 1104.02 56.7923 1104.57 56.9482C1104.69 56.9841 1104.83 57.0229 1104.99 57.0657C1105.54 57.2177 1106.28 57.4213 1107.23 57.7341L1107.31 57.7618L1107.39 57.7942C1109.39 58.5884 1110.74 59.2461 1112.22 60.2607C1113.39 61.0668 1114.63 62.0994 1116.34 63.5178C1116.62 63.7525 1116.91 63.9978 1117.22 64.2543L1117.27 64.2955ZM1079.21 53.8515C1070.94 52.3558 1067.18 49.3646 1067.18 44.1299C1067.18 39.643 1070.94 36.6517 1078.46 36.6517C1086.91 36.6517 1093.38 38.6171 1106.5 43.7743C1107.4 44.127 1108.33 44.4947 1109.29 44.8777L1121.33 13.4694C1104.03 5.99126 1093.5 3 1080.71 3C1053.23 3 1032.66 14.232 1024.72 33.2759C1023.96 35.0799 1023.33 36.9539 1022.81 38.8951C1022.51 36.865 1022.09 34.9332 1021.55 33.0999C1016.48 16.0246 1000.55 7.48689 975.425 7.48689H904.731V109.19H846.821V91.9901H885.177V58.3383H846.821V41.1386H892.697V7.48689H625.713V74.0425H624.961L586.605 7.48689H492.597L474.547 44.1299L456.497 7.48689H376.778L359.481 79.2772H358.729L341.431 7.48689H301.571L283.522 79.2772H282.77L265.472 7.48689H130.1V63.5731C129.483 58.9754 128.474 54.601 127.1 50.4748C118.418 24.4003 95.1875 8.23471 64.6696 8.23471H3V142.842H65.4217C95.8941 142.842 118.541 126.168 127.1 100.009C128.469 95.8241 129.477 91.3964 130.1 86.7553V142.842H228.621V109.938H176.728V92.7379H215.083V58.3383H176.728V41.1386H228.621L256.447 142.094H303.075L321.125 65.0687H321.877L339.175 142.094H385.803L416.638 28.4257L452.737 83.0163V142.094H499.365V83.0163L540.729 19.4519V142.842H587.357V76.2859H588.11L626.465 142.842H673.093V41.1386H715.209V142.842H761.085V41.1386H800.945V142.842H952.111V90.4944H952.863L981.442 142.842H1036.34L1030.33 134.616C1031.83 135.363 1033.33 136.111 1035.59 136.859C1035.64 136.883 1035.69 136.907 1035.74 136.932C1047.71 142.866 1058.95 145.833 1070.94 145.833C1104.03 145.833 1128.09 124.894 1128.09 95.7291C1126.59 83.0163 1123.58 74.0425 1115.31 66.5643C1114.99 66.3013 1114.69 66.0531 1114.41 65.8184C1110.68 62.7163 1109.78 61.9722 1106.28 60.5818C1105.42 60.2962 1104.78 60.1196 1104.23 59.9689C1103.34 59.7249 1102.7 59.5484 1101.77 59.0862C1098.76 57.5905 1092 56.0949 1079.96 53.8515H1079.21ZM73.1789 95.7495C77.5773 91.3136 79.7193 84.7965 79.7193 74.7903C79.7193 66.7955 77.2765 60.2448 73.3199 55.7369C69.3882 51.2574 63.8232 48.6255 57.149 48.6255H52.6283V101.703H58.6531C62.9873 101.703 69.0354 99.1417 73.1789 95.7495ZM58.6531 104.703C63.9176 104.703 70.6862 101.712 75.1986 97.9726C80.4631 92.7379 82.7193 85.2597 82.7193 74.7903C82.7193 57.5905 72.1903 45.6255 57.149 45.6255H49.6283V104.703H58.6531Z" fill="white"/>
<path d="M128 206.353H144.911V204.246H130.279V193.549H144.631V191.442H130.279V181.433H144.911V179.326H128V206.353Z" fill="#ABABAB"/>
<path d="M185.428 206.353H188.266L177.552 192.455L187.667 179.326H184.788L176.113 190.793L167.477 179.326H164.559L174.714 192.495L163.959 206.353H166.838L176.113 194.156L185.428 206.353Z" fill="#ABABAB"/>
<path d="M208.317 206.353H210.596V195.129H218.312C223.389 195.129 226.348 191.482 226.348 187.227C226.348 182.973 223.429 179.326 218.312 179.326H208.317V206.353ZM223.949 187.227C223.949 190.631 221.59 193.022 218.072 193.022H210.596V181.433H218.072C221.59 181.433 223.949 183.824 223.949 187.227Z" fill="#ABABAB"/>
<path d="M247.148 206.353H264.059V204.246H249.427V193.549H263.78V191.442H249.427V181.433H264.059V179.326H247.148V206.353Z" fill="#ABABAB"/>
<path d="M301.338 206.353H304.097L296.381 195.007C300.338 194.845 303.777 192.13 303.777 187.227C303.777 182.284 300.259 179.326 295.661 179.326H285.706V206.353H287.985V195.169H293.862L301.338 206.353ZM301.378 187.227C301.378 190.631 298.979 193.062 295.461 193.062H287.985V181.433H295.461C298.979 181.433 301.378 183.824 301.378 187.227Z" fill="#ABABAB"/>
<path d="M325.435 206.353H327.714V179.326H325.435V206.353Z" fill="#ABABAB"/>
<path d="M350.328 206.353H367.24V204.246H352.607V193.549H366.96V191.442H352.607V181.433H367.24V179.326H350.328V206.353Z" fill="#ABABAB"/>
<path d="M407.956 206.353H410.195V179.326H407.916V202.342L391.205 179.326H388.886V206.353H391.165V183.013L407.956 206.353Z" fill="#ABABAB"/>
<path d="M445.265 206.839C449.583 206.839 452.702 204.976 455.06 202.017L453.141 200.802C451.462 203.152 448.544 204.732 445.265 204.732C439.069 204.732 434.231 199.829 434.231 192.86C434.231 185.809 439.069 180.987 445.265 180.987C448.544 180.987 451.462 182.567 453.141 184.918L455.06 183.661C452.781 180.784 449.583 178.88 445.265 178.88C437.789 178.88 431.833 184.553 431.833 192.86C431.833 201.167 437.789 206.839 445.265 206.839Z" fill="#ABABAB"/>
<path d="M475.684 206.353H492.596V204.246H477.963V193.549H492.316V191.442H477.963V181.433H492.596V179.326H475.684V206.353Z" fill="#ABABAB"/>
<path d="M540.58 206.353H542.859V179.326H540.58V206.353Z" fill="#ABABAB"/>
<path d="M563.994 202.544C566.033 205.057 569.351 206.839 573.749 206.839C580.945 206.839 583.224 202.666 583.224 199.181C583.224 193.711 578.506 192.333 574.189 191.077C570.551 190.104 567.232 189.172 567.232 185.971C567.232 183.054 569.911 180.987 573.469 180.987C576.467 180.987 579.186 182.041 581.105 184.391L582.624 182.689C580.545 180.298 577.587 178.88 573.589 178.88C568.751 178.88 564.834 181.676 564.834 186.093C564.834 191.077 569.311 192.292 573.509 193.468C577.267 194.481 580.825 195.534 580.825 199.343C580.825 201.653 579.266 204.732 573.789 204.732C569.991 204.732 567.192 202.828 565.473 200.802L563.994 202.544Z" fill="#ABABAB"/>
<path d="M631.033 206.353H647.944V204.246H633.311V193.549H647.664V191.442H633.311V181.433H647.944V179.326H631.033V206.353Z" fill="#ABABAB"/>
<path d="M677.786 206.353H680.625L691.539 179.326H688.9L679.185 203.76L669.51 179.326H666.872L677.786 206.353Z" fill="#ABABAB"/>
<path d="M711.467 206.353H728.378V204.246H713.746V193.549H728.098V191.442H713.746V181.433H728.378V179.326H711.467V206.353Z" fill="#ABABAB"/>
<path d="M765.656 206.353H768.415L760.699 195.007C764.657 194.845 768.095 192.13 768.095 187.227C768.095 182.284 764.577 179.326 759.979 179.326H750.025V206.353H752.303V195.169H758.18L765.656 206.353ZM765.696 187.227C765.696 190.631 763.298 193.062 759.78 193.062H752.303V181.433H759.78C763.298 181.433 765.696 183.824 765.696 187.227Z" fill="#ABABAB"/>
<path d="M797.044 206.353H799.363V194.805L809.957 179.326H807.199L798.203 192.617L789.208 179.326H786.45L797.044 194.805V206.353Z" fill="#ABABAB"/>
<path d="M836.67 206.353H838.989V181.433H847.704V179.326H827.954V181.433H836.67V206.353Z" fill="#ABABAB"/>
<path d="M887.621 206.353H889.94V179.326H887.621V191.401H870.71V179.326H868.431V206.353H870.71V193.508H887.621V206.353Z" fill="#ABABAB"/>
<path d="M912.533 206.353H914.812V179.326H912.533V206.353Z" fill="#ABABAB"/>
<path d="M956.496 206.353H958.735V179.326H956.456V202.342L939.745 179.326H937.426V206.353H939.705V183.013L956.496 206.353Z" fill="#ABABAB"/>
<path d="M980.372 192.86C980.372 201.207 986.409 206.88 993.885 206.88C998.083 206.88 1001.64 205.057 1004 202.382V192.941H991.646V195.007H1001.72V201.491C1000.24 202.99 997.443 204.773 993.885 204.773C987.609 204.773 982.771 199.829 982.771 192.86C982.771 185.809 987.609 180.987 993.885 180.987C997.284 180.987 1000.32 182.486 1002.2 184.756L1003.92 183.499C1001.48 180.663 998.283 178.88 993.885 178.88C986.409 178.88 980.372 184.512 980.372 192.86Z" fill="#ABABAB"/>
</svg>
