<svg id="Layer_1" data-name="Layer 1" xmlns="http://www.w3.org/2000/svg" viewBox="0 0 1334.91 169.47"><defs><style>.cls-1{fill:#00e4e1;}</style></defs><title>logo</title><path class="cls-1" d="M1261.73,126.88a49.71,49.71,0,0,1-25-6.21c-6.25-3.55-9.82-6.21-19.63-14.2l-10.71,32.83-31.23-45.25c7.14-2.66,12.49-4.44,16.06-7.1a39.43,39.43,0,0,0,16.06-20.41c1.79,8.87,5.36,16,11.6,21.29,8,7.1,22.31,13.31,38.37,16l6.25.89c12.49,1.77,16.95,5.32,16.95,10.65C1280.47,122.44,1273.34,126.88,1261.73,126.88ZM1135,75.42h-10.71V41.7h8.92c12.49,0,20.52,6.21,20.52,16.86C1154.66,69.21,1146.63,75.42,1135,75.42ZM85.66,112.68c-5.35,4.44-13.38,8-19.63,8H55.32V50.57h8.92c17.85,0,30.34,14.2,30.34,34.6C94.59,97.6,91.91,106.47,85.66,112.68ZM1319.74,75.42c-5.36-4.44-6.25-5.32-10.71-7.1-2.68-.89-3.57-.89-5.36-1.77-3.57-1.77-11.6-3.55-25.87-6.21h-.9c-9.81-1.77-14.27-5.32-14.27-11.53,0-5.32,4.46-8.87,13.38-8.87,10.71,0,18.74,2.66,36.59,9.76l14.27-37.27C1306.35,3.55,1293.86,0,1278.69,0,1243,0,1217.12,16,1210,42.59c-3.57-24.84-23.2-37.27-56.22-37.27h-83.87V126h-68.71V105.58h45.51V65.66h-45.51V45.25h54.43V5.32H738.84v79h-.89l-45.51-79H580.9L559.48,48.8,538.07,5.32H443.48L423,90.5h-.89L401.54,5.32H354.25L332.83,90.5h-.89L311.42,5.32H150.8V71.87C145.45,31.94,115.11,6.21,73.17,6.21H0V165.92H74.06c41.94,0,71.39-26.62,76.74-66.54v66.54H267.7v-39H206.13V106.47h45.51V65.66H206.13V45.25H267.7l33,119.78H356l21.42-91.39h.89L398.86,165h55.32L490.77,30.17,533.6,94.94V165h55.32V94.94L638,19.52v146.4h55.32V87h.89l45.51,79h55.32V45.25h50V165.92h54.43V45.25h47.29V165.92H1126.1V103.81h.9l33.9,62.11H1226l-7.14-9.76a43.69,43.69,0,0,0,6.25,2.66c14.28,7.1,27.66,10.65,41.94,10.65,39.26,0,67.82-24.84,67.82-59.45C1333.12,94.94,1329.55,84.29,1319.74,75.42Z"/></svg>