<svg id="Layer_1" data-name="Layer 1" xmlns="http://www.w3.org/2000/svg" viewBox="0 0 768 1024"><defs><style>.cls-1{opacity:0.7;}</style></defs><title>mobile-bg</title><polygon class="cls-1" points="418.24 152.82 331.99 152.82 331.99 188.63 403.87 188.63 403.87 257.24 331.99 257.24 331.99 293.45 431.26 293.45 431.26 362.07 361.83 362.07 443.19 504.87 444.14 504.87 444.14 361.39 467.06 361.39 418.24 152.82"/><path class="cls-1" d="M255.24,172.9V83.8H484.69L520.49,232h.81L558.87,83.8h73.5l37.16,147.95h.81L702.48,83.8H768V0H0V84.21H126.68C190.42,84.21,237.74,118.11,255.24,172.9Z"/><path class="cls-1" d="M694.48,636.82c17.76,3.25,36.34,9.9,61.3,21.16l-27.39,71.74c-33.22-14.51-49.36-19.26-69.7-19.26-16.68,0-25.22,5.56-25.22,16.41,0,11.39,9.49,19,27.53,22.24l2.31.54c26.58,4.75,41.9,8,49.5,11.26a81.46,81.46,0,0,1,9.9,3.93c7.46,3.66,10.44,5,19.93,13.56,15,13.86,23.13,30.67,25.38,52.1V433.27H694.48Z"/><path class="cls-1" d="M637.79,957.67c-27.12,0-53.57-6.64-80.69-19.8-4.34-2.17-7.87-3.93-11.39-6l13.15,19.26H433.16l-65.5-120.29h-.95V951.16H.83v-308H76.78V525.48L0,406.38V1024H768V855.94C761.64,915.92,709.29,957.67,637.79,957.67Z"/><path class="cls-1" d="M549.37,800.36c-11.12-9.49-19-24.55-22-41-5.29,16.68-15.87,29.83-31.73,39.73-8.54,5.15-17.49,9.36-31.73,14.1l59.94,86.93,19.8-63.47c19.39,15.6,26.58,20.75,38.38,27.39,16.54,8.54,31.33,12.75,48.82,12.75,21.83,0,36.07-9.49,36.07-23.6,0-10.85-8.14-16-31.87-20.21l-12.2-2.58C593,825.31,564.56,814.06,549.37,800.36Z"/><path class="cls-1" d="M359.25,509.75v133.3h62.92c5,0,9.9.27,14.78.54L360.2,509.75Z"/><path class="cls-1" d="M384.61,712.76h-18l-.54.54v64.28h20.48c22.38,0,37-12.75,37-32.82C423.53,725.1,408.75,712.76,384.61,712.76Z"/><polygon class="cls-1" points="259.03 396.92 176.58 524.39 176.58 643.05 221.34 643.05 221.34 719.4 109.05 719.4 109.05 759 204.93 759 204.93 834.94 109.05 834.94 109.05 875.08 109.05 875.08 260.39 875.08 260.39 653.22 259.03 653.22 259.03 396.92"/><polygon class="cls-1" points="719.7 361.26 768 361.26 768 185.17 719.7 361.26"/><path class="cls-1" d="M164.92,361.26h90.32V272.84C237.88,327.63,191,362.07,127.9,362.07H88.3l38.24,78.38Z"/><path class="cls-1" d="M530,715.74c9.9-35.94,38.11-62.24,78.52-74.31h.14V433.27H543.54V653.36H481.43C509,664.89,525.51,686,530,715.74Z"/><polygon class="cls-1" points="596.97 203.54 596.16 203.54 562.53 361.26 632.64 361.26 596.97 203.54"/><path class="cls-1" d="M148.11,269.86c10.58-10.17,15.73-25.49,15.73-46.38,0-36.61-20.88-60.89-52.07-60.89H95.63V284.37h17.9C124.65,284.37,139.56,278,148.11,269.86Z"/></svg>