<?xml version="1.0" encoding="utf-8"?>
<!-- Generator: Adobe Illustrator 22.1.0, SVG Export Plug-In . SVG Version: 6.00 Build 0)  -->
<svg version="1.1" id="Layer_1" xmlns="http://www.w3.org/2000/svg" xmlns:xlink="http://www.w3.org/1999/xlink" x="0px" y="0px"
	 viewBox="0 0 201 137" style="enable-background:new 0 0 201 137;" xml:space="preserve">
<style type="text/css">
	.st0{fill:#484848;}
</style>
<path class="st0" d="M54,118.9h3.6c2.8,0,4.7,1.3,4.7,4.6s-1.9,4.6-4.7,4.6H54V118.9z M56.3,126.2h1.3c1.7,0,2.3-1.2,2.3-2.7
	s-0.6-2.7-2.4-2.7h-1.3V126.2z"/>
<path class="st0" d="M63.6,118.9h2.3v9.2h-2.3V118.9z"/>
<path class="st0" d="M68.6,125.4c0.8,0.7,1.6,1.2,2.7,1.2c0.6,0,1.7-0.3,1.7-1.1c0-0.5-0.4-0.7-1-0.8l-1.9-0.3
	c-1.7-0.3-2.7-1.2-2.7-2.5c0-2.2,1.8-3.1,3.8-3.1c1.5,0,3,0.6,4.1,1.8l-1.7,1.3c-0.6-0.7-1.5-1.2-2.5-1.2c-0.5,0-1.3,0.3-1.3,0.9
	c0,0.5,0.4,0.7,1.3,0.9l0.9,0.1c1.8,0.3,3.4,0.9,3.4,2.6c0,2.8-2.5,3.3-4.2,3.3c-1.6,0-2.9-0.5-4.1-1.9L68.6,125.4z"/>
<path class="st0" d="M78.9,123.4h1.9c1,0,1.4-0.7,1.4-1.4c0-0.9-0.5-1.4-1.5-1.4h-1.9V123.4z M76.6,118.9h4.6c2.5,0,3.4,1.3,3.4,3.1
	c0,1.2-0.7,3.1-3.9,3.1h-1.8v3h-2.3L76.6,118.9L76.6,118.9z"/>
<path class="st0" d="M85.7,118.9H88v7.3h3.6v1.9h-5.9V118.9z"/>
<path class="st0" d="M95.4,118.9h2.4l3.5,9.2h-2.5l-0.5-1.5H95l-0.5,1.5h-2.5L95.4,118.9z M97.8,125l-1.1-3.8h0l-1.1,3.8H97.8z"/>
<path class="st0" d="M104.9,123.8l-3.5-4.9h2.7l1.9,3.2l1.9-3.2h2.7l-3.5,4.9v4.3h-2.3L104.9,123.8L104.9,123.8z"/>
<path class="st0" d="M112.5,125.4c0.8,0.7,1.6,1.2,2.7,1.2c0.6,0,1.7-0.3,1.7-1.1c0-0.5-0.4-0.7-1-0.8l-1.9-0.3
	c-1.7-0.3-2.7-1.2-2.7-2.5c0-2.2,1.8-3.1,3.8-3.1c1.5,0,3,0.6,4.1,1.8l-1.7,1.3c-0.6-0.7-1.5-1.2-2.5-1.2c-0.5,0-1.3,0.3-1.3,0.9
	c0,0.5,0.4,0.7,1.3,0.9l0.9,0.1c1.8,0.3,3.4,0.9,3.4,2.6c0,2.8-2.5,3.3-4.2,3.3c-1.6,0-2.9-0.5-4.1-1.9L112.5,125.4z"/>
<path class="st0" d="M124,118.9h2.3v7.3h3.6v1.9H124V118.9z"/>
<path class="st0" d="M131.3,118.9h2.3v9.2h-2.3V118.9z"/>
<path class="st0" d="M135.3,118.9h3.4l1.6,6.9h0l1.7-6.9h3.3v9.2h-2.2V121h0l-1.8,7.2h-2l-1.9-7.2h0v7.2h-2.1V118.9z"/>
<path class="st0" d="M147.1,118.9h2.3v9.2h-2.3V118.9z"/>
<path class="st0" d="M150.4,118.9h7.1v1.8h-2.4v7.4h-2.3v-7.4h-2.4L150.4,118.9L150.4,118.9z"/>
<path class="st0" d="M158.6,128.1v-9.2h6.8v1.8h-4.5v1.7h4.2v1.8h-4.2v2.2h4.9v1.8L158.6,128.1L158.6,128.1z"/>
<path class="st0" d="M166.9,118.9h3.6c2.8,0,4.7,1.3,4.7,4.6s-1.9,4.6-4.7,4.6h-3.6V118.9z M169.2,126.2h1.3c1.7,0,2.3-1.2,2.3-2.7
	s-0.6-2.7-2.4-2.7h-1.3V126.2z"/>
<path class="st0" d="M145.9,73.4c-3.7-0.7-6.1,2.4-8.9,4.1c-4.3,3.9-9.2,8.6-9.2,15c-0.3,0.5-0.9,0.6-1.4,0.9
	c-2.7,0.8-5.8,2.7-8.4,0.7c-2.5-2.2-3-5.2-5-7.7c-1.3-0.7-2.3-2.1-4.1-1.7c-2.5,0-3.2,2.8-4.4,4.5c-0.7,0.7-1.1,1.7-2,2
	c-0.7-1.7,0.6-4.3-1.1-5.4c-0.5-0.9-1.4-1-2.1-1.6c-2.6-0.4-3.9,2-5.3,3.7l-0.4,0.2c0.1-2,0.5-4,0.9-6c-0.6-0.2-0.8-0.8-1.5-0.8
	c-0.6-0.1-0.5-1-1.2-1c-0.9,0-1.5,0.5-2.1,1.2c-1.6,4.6-2.3,9.6-3.3,14.4c-0.1,1.1-0.2,2,0.1,3.1c0.5,1.3,1.7,2.8,3.2,3
	c0.8,0.2,1.6-0.1,2.2-0.5c1.9-2.3,3.1-4.7,4.8-7.1c0.1-0.1,0.4-0.3,0.5,0c0.8,2.1,2.3,4.2,4.8,4.6c1.1-0.1,2-0.6,3-1.1
	c1.8-1.9,3.6-4.2,5-6.5c0.6,0.1,0.7,0.7,1,1.2c1.9,2.3,3.7,5.4,7.2,5.8c2.5,0.9,5.9,0.6,8.2-0.5c1-0.4,1.6-1.5,2.7-1.6
	c1.6,2.1,4.2,2.8,7,2.3c3.1-0.6,5.5-3.1,8-4.9c1.8,2.3,4.3,3.5,7,3.8c3.5,0.9,5.9-2.1,8.5-4c0.2-0.1,0.6-0.5,0.8-0.2
	c-0.2,2.2,1,3.9,2.8,5c0.6,0.1,1.2,0.3,1.7-0.1c1.8-1.5,3.4-3.8,5.2-5.2c1.7-0.8,3.9-0.3,5.4,0.8c2.1,1.3,4.1,2.8,6.5,3.4
	c3.1,1.2,7.4,1,10.2-0.8c0.5-0.5,1.7,0.1,1.7-0.8c1.3-0.7,2.7-1.7,3.9-2.4c0.8-0.7,1.8-1.2,2.3-2.2c-0.2,0-0.5,0.2-0.6-0.1
	c0.6-0.5,0.6-1.2,1.1-1.7c0.4-0.8-0.3-1.5,0-2.4c0.3-1-1.1-0.3-1-1.2c-0.5,0.3-1,0-1.4,0.2c-3.7,3.7-7.8,6.6-12.9,7.4
	c-6.2-0.7-10.4-7.7-17.2-5.9c-0.9,0.3-1.7,1.1-2.7,1.2c-0.3-0.4-0.4-0.9-0.5-1.4c-0.4-1.2-1.7-2.1-3-2.2c-1.7,0.9-2.9,2.4-4.3,3.8
	l-0.2,0.1c-1.4,2.2-3.8,3.3-6.1,4.1c-1.2,0-1.9-1.1-2.7-2c-0.7-1.5-1.1-3.4-2.8-4.2c-1.4,0-2.6-0.6-3.7,0.2c-1.4,2.5-3.7,4-5.5,5.8
	c-0.8,0.5-1.6,1.5-2.7,1.4c-1.4-1.5-0.1-3.7,0.4-5.3c1.8-4.3,5.6-7.6,9.3-10.3c0.6-0.3,0.9-1,1.7-0.7c0.7,0.1,0.7,0.7,1.1,1.2
	c0.8,0.3,1.2,1.2,2.2,1.1c0.8,0.1,0.6-1,1.1-1.4c0.2-0.2,0.4,0,0.6,0.1l0.1-0.5c-0.6-0.9-1-2-1.6-2.9
	C147.7,74.4,146.9,73.6,145.9,73.4z"/>
<path class="st0" d="M81.7,81.6c-0.3-0.3-0.5-0.2-0.8-0.1c-0.3,0.3-0.3,0.7-0.3,1.2c-0.6,0.4-0.6,1.4-1.3,1.7
	c-0.5,1.5-0.8,3.2-1,4.7c-0.5,3.8-2.2,7.2-3.9,10.3h-0.2c-0.4,0.5-1,1.4-1.7,1.5c-1.5-1.7-1.9-4-2.3-6.1c-0.8-0.6-1.4-1.6-2.3-2
	c-0.8,0-2-0.4-2.6,0.3c-0.8,2.2-2.2,4.2-3.6,6.1c-0.4,0.5-0.8,1.2-1.6,1.3c-0.4-1.8,0.4-3.5,0.5-5.3c0.4-1.8,1.2-3.6,1.4-5.4
	c-0.5,0.3-0.6-0.5-1.2-0.5c-0.9,0.4-1.2-0.7-1.7-1.1c-0.6-0.5-1.1,0.3-1.6,0.6c-1.4,2.1-1.5,4.5-2.3,6.7c-0.6,0.1-0.4,0.5-0.6,0.9
	c-0.7,0.2-1.1,1.1-1.2,1.7c-3.1,4.6-6.5,8.6-10.2,12.6c-2.2,1.6-3.8,4.6-6.9,5c-0.8-1.1-1-2.5-1.1-3.8c0.2-1.3,0-2.8,0.9-3.9
	c5.6-1.6,9.6-6,12-11.1c0.9-1.8,1.8-3.7,1.3-5.8c-0.7-1.3-1-3-2.6-3.4c-2.1-0.2-4.6-0.1-5.9,1.7c-2.5,1.4-4.5,3.5-5.8,6.1
	c-1.7,2.3-2.1,5.2-3.6,7.5c-0.7,0-1.7-0.5-2.3,0.2c-0.7,0.6-0.7,1.6-0.8,2.4c0.3,0.9,1.3,1.2,1.9,1.7c-0.5,2.8-0.5,6.1,0.5,8.6
	c1.5,1.7,2.4,3.9,5,4.1c0.6,0.5,1.7,0.3,2.4,0.5c2.3-0.5,4.2-1.7,5.8-3.2c3.7-3.7,7.5-7.8,11-12.3c0.3-0.1,0.4,0.1,0.6,0.2
	c0.8,1.2,2.1,2.6,3.8,2.6c3-0.1,4.4-2.8,6.3-4.7c0.4-0.5,0.7-1.1,1.3-1.3c1.3,0.9,1.8,2.8,3.4,3.5c1.9,0.8,4.5,0.9,6.2-0.3
	c2.9-1.9,3.9-5.1,5.1-8.2c1.4-3.4,1.1-7.2,1.7-10.9l-0.2-0.5c-0.1,0.1-0.2,0.2-0.3,0.1c-0.1-0.6-0.4-1.5-0.4-2.2
	C82.4,82.6,82,82.3,81.7,81.6z M44.8,93.3c-1.6,2.7-3.8,5.5-6.4,7.6h-0.3c0.5-3.3,2.9-6,5.7-7.8C44.1,92.8,44.6,92.9,44.8,93.3z"/>
<path class="st0" d="M32,84c-0.2,0.1-0.3,0.4-0.1,0.6c0.2,0,0.3,0,0.4-0.2C32.3,84.3,32.2,84,32,84z"/>
<path class="st0" d="M55.4,31.3l-0.4,0c0-0.2,0.1-0.4,0.4-0.3L55.4,31.3z M43.4,52.7l-0.2,0.1l-0.1-0.1c-0.4,0.2-0.6,0.7-1.1,0.4
	C42.3,52.8,42.9,52.6,43.4,52.7L43.4,52.7z M64.1,15.3c-0.1,0.1-0.2,0.3-0.2,0.4l-0.1,0C63.7,15.6,63.8,15.1,64.1,15.3z M61.5,18.8
	c0,0.8-1,0-1.1,0.7c0.1-0.7,0.8-1.4,1.2-2.1C61.7,17.7,60.9,18.4,61.5,18.8z M58.4,23.8L58.2,24c0.1,0.1,0.1,0,0.2,0
	c0.1,0,0.1-0.1,0.1-0.2C58.5,23.9,58.4,23.9,58.4,23.8z M59.2,21L59,21.4c0.1,0.1,0.2-0.1,0.4,0C59.3,21.2,59.3,21.1,59.2,21z
	 M52.7,35c-0.3,0.1-0.2-0.3-0.3-0.4C52.6,34.7,52.6,34.8,52.7,35z M55,31.2l0.4,0l0-0.4L55,31.2z M73.9,1.6l0.6-0.8L74.7,0l-1,0.3
	l-1.9,2.6c-0.1,0.7-0.9,0.2-1.2,0.7c0.1,0.6-0.7,0.9-0.8,1.6c-1.1,0.6-1.2,1.8-2.1,2.6c0.1,0.8-0.9,1.1-0.8,1.8
	c-0.8,0.2-1,1.2-1.8,1.5c0.1,0.4,0,0.7-0.2,1c-1.5,1.2-2.3,3.1-3.5,4.6c-1.3,2.1-2.8,4-3.9,6.1c-0.9,2.3-2.1,4.6-3.6,6.7
	c-0.2,0.5-1,0.9-0.5,1.4c-0.5,0.5-0.7,0.9-0.9,1.6c-1.1,1.1-1.6,2.4-2.5,3.7c-0.6,0.5-1.2,1.2-1,1.9c-0.2,0.3-0.5,0.9-0.5,1.2
	l0.1-0.1l0.3,0.3c-0.3,0.2-0.2,0.5-0.6,0.5c-0.2,0.4,0.3,0.3,0.2,0.6l-0.3,0.2c-0.3,0.6-0.4,1.3-0.8,1.9c0.9,1.2-1,0.6-1.1,1.4
	c0.1,0,0.1,0,0.2,0.1c0,0.5,0.3,1-0.3,1.3c-0.5-0.4-0.6,0.1-1.2,0c-0.1,0.4-0.6,0.8-0.5,1.2c0.4,0,0.3-0.4,0.6-0.6
	c1-0.1,0,0.6,0.2,0.9c-1,0-0.5,1-1.1,1.6c-0.6-0.1,0.2-0.7-0.4-0.8c0,0-0.1,0.1-0.1,0.1c-0.3,0.3-0.7,1-0.5,1.3l0.1-0.2
	c0.6-0.1,0.5,0.5,0.7,0.8c-0.1,0.1-0.2,0.2-0.3,0.2c-0.5-1.2-0.4,0.6-1.1,0.2c-0.2,0.6-0.9,1-0.6,1.7c-0.9,0.2-0.5,1.4-1.3,1.6
	c0.5,0.9-0.9,0.8-0.8,1.6l0.3,0.2c-0.1,0.5,0.2,0.5,0.4,0.9c1,0.3-0.3,1.2,0.6,1.6c-0.2,0.7-0.7-0.1-1.2,0.1v0.4
	c-0.6,0.2-1.2,0.4-1.6,1c-0.1,0.9-1,1.4-1,2.4c0.4,0.1,0.3,0.5,0.4,0.8c0,0.5-0.6,1-1,0.8c-0.3,0.7-0.7,1.3-0.8,2.2
	c-0.5,0.5-0.8,1.1-1.3,1.7c-0.2,0.8-1.1,0.8-1.2,1.6c0.9,0.3-0.4,0.9,0.2,1.4c0,0.4,0,0.8-0.5,1.1c0.1,0.9-1.1,0.4-1.2,0.9
	c0.7,0.6,0.3,1.6,0.4,2.4c-0.2,0.1-0.4,0-0.5,0.3c0.3,0.8-0.5,1.4-0.7,2.2c0.4,0.4-0.4,0.7-0.2,1.2c-0.9,0.8-1.3,1.9-1.2,3.1
	l-0.5,0.1c-0.1,0.4-1.2,0.8-0.4,1.2c-0.8,0-0.4,0.9-0.8,1.3c-0.2,0.4-0.4,0.9-0.6,1.2c0.5,0.9-0.6,1.7,0.1,2.4
	c-0.3,0.2-0.1,0.8-0.6,0.6c-0.2,0.4-0.3,0.9-0.2,1.3c1,0.7-0.9,1-0.4,1.8c-0.4,0.5,0.1,1.6-0.9,1.6c-0.1,0.9-1.1,1.8-0.5,2.7
	c-0.8,0.5,0.2,1-0.2,1.8c-0.3,0.3-0.4,0.9-0.9,0.8c0.1,0.4-0.1,0.6-0.1,0.9c-0.6,1.1-0.8,2.1-1,3.4c0.4,0.2-0.1,0.5-0.1,0.7
	c-0.1,1-0.3,2.1-0.8,2.9c0.3,1.4-1.1,2-1.2,3.3l-0.3-0.3c-0.2-1.1-0.6-2.4-0.6-3.6c-1.1-5.4-2-11-2.5-16.6
	c-1.2-9.8-0.7-19.5-2.3-29.3l-0.9-1.1c-1.7-1.1-3.1,0.6-4.5,1.1c-1.1,1.4-1.1,3.3-1.5,5c0.2,2.9-1.1,6-1.7,8.9
	c-0.1,0.7-0.1,1.2-0.4,1.8c-0.1,1.4-0.8,2.8-0.6,4.2c-0.1,0.1-0.2,0.2-0.3,0.2c0,1.4-0.6,2.5-0.6,3.8c0.4,1.1-0.7,1.8-0.5,2.9
	c0.4,0.6-0.5,1.1-0.2,1.8c-0.3,0.6-0.2,1-0.4,1.6c0.3,0.6-0.6,0.8-0.4,1.5c-0.4,0.4-0.3,1-0.4,1.6c0.2,0.1,0.3,0.4,0.2,0.6
	C3,93.9,3.1,94.7,2.6,95c0,0.2,0.1,0.3,0.2,0.5c-0.6,2.7-0.9,5.5-1.3,8.2c-0.2,2.3-0.5,4.5-0.9,6.7l0.2,0.4l0.3-0.9
	c0.5,0.5-0.2,1.1-0.1,1.7c-0.3,0.5,0.3,0.6,0.6,0.7c-0.1,0.5,0.5,0.6,0.3,1.1h0.3l1.2-5.4c0.4-0.7,0-1.8,0.9-2.2
	c0.2-0.3-0.1-0.5-0.1-0.8c0.4-1,0.8-2.1,1.2-2.9c1.8-7,3.2-14.2,4.7-21.3c0.3-1.7,0.6-3.5,1.3-5c0.9,1.5,0.3,3.6,0.6,5.2
	c0.5,4.4,1,8.8,1.5,13.2c0.7,5.4,1.9,11.4,2.6,17c0.5,0.8,0.3,1.7,0.7,2.6c0.2,2,0.5,4.1,0.8,6c1.2,4.8,0.7,9.7,1,14.7l0.9,1.3
	c0.4-0.1,0.5,0.3,0.7,0.5c0.7,0,1.5,0,2.2,0c0.5-0.6,1.7-0.3,1.5-1.5c-0.3-4.8-0.3-9,0.3-13.6c0.7-2.7,0.5-5.6,1.4-8.2
	c-0.1-1.8,0.8-3.1,0.9-4.8c0.4-2.9,1.6-5.5,1.9-8.5c0.4-0.6,0.5-1.2,0.6-1.9c0.4-0.8,0.5-1.5,0.6-2.5c0.1-0.6,0.6-1.1,0.3-1.7
	c0.7-0.8,0.7-2.1,1.3-3.1H31c-0.1-0.6,0.1-1.3,0.3-1.8c-1.2-1.2,1.2-0.7,0.9-2.1c0-1,0.4-1.9,0.7-2.9l-0.4-0.2
	c0-0.2,0.2-0.2,0.2-0.3c0.6-0.1,0.4-0.9,0.6-1.4c1.4-0.8-1.2-1-0.2-1.9l0.1,0.1c-0.2,0.3,0.3,0.6,0.6,0.6c0-0.2,0.3-0.3,0.1-0.5
	c-0.1-0.1-0.3-0.3,0-0.4c1.2-0.3,0.2-1.4,0.9-2.1c0.9-0.3,0.8-1.5,0.9-2.3c0.6-0.9,0.2-2.2,1.3-2.9c0-0.9,0.8-1.8,0.3-2.6
	c0.4-0.6,0.4-1.4,1-1.9c0.3-0.4-0.3-0.8,0.2-1c-0.1-0.6,0.7-0.3,0.9-0.7c-0.2-0.9,0.6-1.5,0.8-2.4c0.2-0.3-0.2-0.7,0.3-0.8
	c-0.5-1,1-1.5,0.5-2.5c0.6-0.3,0.1-1.2,0.9-1.3c0-0.1,0-0.2-0.1-0.2c0.5-0.3,0.4-0.9,0.6-1.3c0.5,0,0.9-0.4,0.9-0.9
	c0.7-0.3-0.2-1,0.6-1.3c-0.5-0.7,0.2-1.4,0.2-2.2c0.1-0.6,0.5,0.1,0.7-0.3c-0.2-1.2,0.6-2,0.9-3c0.4-1,1.1-0.7,1.7-1.7
	c0-0.8,1-1.4,0.3-2.1c0.1-0.5,0.6-0.7,0.9-0.9c1.2-1.3,1.3-3,2.3-4.4c0.2-0.7-0.1-1.3,0.3-1.8c0.5-0.7,0.7-1.3,1.2-1.9
	c0-1,1.2-1.1,1.1-2.1c0.2,0.1,0.3,0,0.5-0.1c-0.2-0.9,0.5-1.4,0.4-2.3c0.1-0.5,0.4-0.7,0.9-0.9c0.4-0.6,0.8-1.1,1-1.7
	c0.6,0,0.8-0.8,1-1.2c-1-0.5,0.3-1.2,0.3-1.8c0.3-0.3,0.6,0.2,0.7-0.3c0.2-0.3-0.1-0.3-0.2-0.5l0.4-0.4c0.8-0.9,0.7-1.9,1.5-2.7
	c1.1-0.4,0.7-1.7,1.3-2.4c0.5-1.6,2-2.3,2.4-3.9c1.6-1.5,2.2-3.5,3.5-5c0.2,0,0.3,0.3,0.4,0.1c0.6-0.7,0.9-1.3,1.6-1.8
	c-0.4-0.7,0.8-1.1,0.6-1.9c1.5-0.2,0.4-1.7,1.7-2.1c-0.3-0.9,0.6-0.8,0.7-1.7c1.3,0.2,0.2-1.2,1.2-1.5L73.9,1.6z"/>
</svg>
