<svg width="201" height="137" viewBox="0 0 201 137" fill="none" xmlns="http://www.w3.org/2000/svg">
<path d="M53.4831 118.905H57.0422C59.8571 118.905 61.7337 120.232 61.7337 123.5C61.7337 126.768 59.8571 128.094 57.0422 128.094H53.4831V118.905ZM55.7803 126.185H57.1069C58.8217 126.185 59.4364 125.02 59.4364 123.532C59.4364 122.044 58.8217 120.879 57.0745 120.879H55.7803V126.185Z" fill="white"/>
<path d="M63.1249 118.905H65.4222V128.126H63.1249V118.905Z" fill="white"/>
<path d="M68.1076 125.376C68.9165 126.088 69.6606 126.541 70.7607 126.541C71.3755 126.541 72.4755 126.282 72.4755 125.473C72.4755 125.02 72.1196 124.761 71.4402 124.664L69.5312 124.341C67.8164 124.082 66.8781 123.176 66.8781 121.817C66.8781 119.585 68.69 118.679 70.6313 118.679C72.152 118.679 73.6727 119.293 74.708 120.458L72.9609 121.72C72.3461 120.976 71.4725 120.555 70.5019 120.555C69.9842 120.555 69.2077 120.879 69.2077 121.493C69.2077 121.979 69.5959 122.238 70.5019 122.367L71.3755 122.497C73.2197 122.788 74.7404 123.37 74.7404 125.117C74.7404 127.9 72.249 128.417 70.5342 128.417C68.9812 128.417 67.6223 127.9 66.3928 126.541L68.1076 125.376Z" fill="white"/>
<path d="M78.3965 123.435H80.3378C81.3731 123.435 81.7614 122.756 81.7614 122.044C81.7614 121.138 81.3084 120.62 80.2731 120.62H78.3965V123.435ZM76.0992 118.905H80.6613C83.1527 118.905 84.0586 120.199 84.0586 122.011C84.0586 123.241 83.3792 125.117 80.2084 125.117H78.3965V128.094H76.0669V118.905H76.0992Z" fill="white"/>
<path d="M85.1912 118.905H87.4884V126.185H91.0798V128.126H85.1912V118.905Z" fill="white"/>
<path d="M94.9301 118.905H97.3244L100.819 128.126H98.3598L97.9068 126.671H94.4771L94.0242 128.126H91.5652L94.9301 118.905ZM97.3244 124.956L96.192 121.138H96.1596L95.0272 124.956H97.3244Z" fill="white"/>
<path d="M104.378 123.823L100.883 118.905H103.569L105.51 122.076L107.451 118.905H110.137L106.643 123.823V128.126H104.345V123.823H104.378Z" fill="white"/>
<path d="M111.981 125.376C112.79 126.088 113.534 126.541 114.634 126.541C115.249 126.541 116.349 126.282 116.349 125.473C116.349 125.02 115.993 124.761 115.314 124.664L113.405 124.341C111.69 124.082 110.752 123.176 110.752 121.817C110.752 119.585 112.564 118.679 114.505 118.679C116.026 118.679 117.546 119.293 118.582 120.458L116.835 121.72C116.22 120.976 115.346 120.555 114.376 120.555C113.858 120.555 113.081 120.879 113.081 121.493C113.081 121.979 113.47 122.238 114.376 122.367L115.249 122.497C117.093 122.788 118.614 123.37 118.614 125.117C118.614 127.9 116.123 128.417 114.408 128.417C112.855 128.417 111.496 127.9 110.266 126.541L111.981 125.376Z" fill="white"/>
<path d="M123.532 118.905H125.829V126.185H129.421V128.126H123.532V118.905Z" fill="white"/>
<path d="M130.747 118.905H133.045V128.126H130.747V118.905Z" fill="white"/>
<path d="M134.759 118.905H138.157L139.774 125.765H139.807L141.489 118.905H144.822V128.126H142.654V120.976H142.622L140.81 128.126H138.771L136.895 120.976H136.862V128.126H134.759V118.905Z" fill="white"/>
<path d="M146.569 118.905H148.866V128.126H146.569V118.905Z" fill="white"/>
<path d="M149.901 118.905H157.02V120.685H154.625V128.126H152.328V120.685H149.934V118.905H149.901Z" fill="white"/>
<path d="M158.087 128.126V118.905H164.882V120.685H160.417V122.367H164.591V124.147H160.417V126.315H165.27V128.094H158.087V128.126Z" fill="white"/>
<path d="M166.403 118.905H169.962C172.777 118.905 174.653 120.232 174.653 123.5C174.653 126.768 172.777 128.094 169.962 128.094H166.403V118.905ZM168.7 126.185H170.026C171.741 126.185 172.356 125.02 172.356 123.532C172.356 122.044 171.741 120.879 169.994 120.879H168.7V126.185Z" fill="white"/>
<path d="M145.372 73.3814C141.651 72.7019 139.257 75.7756 136.506 77.4905C132.203 81.4378 127.35 86.1293 127.285 92.4709C126.962 92.9886 126.347 93.0533 125.862 93.3445C123.176 94.1857 120.07 96.0623 117.417 94.024C114.925 91.8238 114.44 88.8471 112.434 86.3558C111.172 85.6763 110.105 84.2203 108.325 84.641C105.866 84.6733 105.089 87.4559 103.892 89.1383C103.213 89.8825 102.792 90.8531 101.886 91.1767C101.175 89.5266 102.436 86.8411 100.786 85.8057C100.301 84.9322 99.4273 84.8027 98.6832 84.2527C96.1271 83.8644 94.8329 86.2587 93.4093 87.9735L93.021 88.1353C93.0857 86.1293 93.474 84.0909 93.8946 82.1496C93.3446 81.9555 93.0857 81.3084 92.4063 81.3084C91.7915 81.179 91.9533 80.3377 91.2415 80.3054C90.3032 80.273 89.7208 80.7907 89.1384 81.5349C87.5854 86.1616 86.8412 91.112 85.8705 95.9653C85.8058 97.0653 85.7088 97.9389 85.9676 99.0714C86.4206 100.398 87.6501 101.919 89.1384 102.048C89.9473 102.275 90.7562 101.951 91.3062 101.498C93.1828 99.2008 94.4446 96.8388 96.0624 94.4122C96.1918 94.3475 96.483 94.121 96.6124 94.4122C97.4537 96.5153 98.942 98.586 101.401 99.0066C102.501 98.8772 103.439 98.4243 104.378 97.9066C106.222 96.03 107.937 93.668 109.425 91.4032C110.007 91.4679 110.169 92.1474 110.428 92.568C112.305 94.8975 114.149 98.0036 117.579 98.3919C120.07 99.3302 123.467 99.039 125.797 97.9066C126.767 97.5507 127.35 96.3859 128.515 96.2888C130.165 98.3595 132.753 99.1361 135.503 98.6184C138.609 98.0683 140.971 95.5446 143.495 93.7328C145.339 96.03 147.766 97.1948 150.484 97.5183C154.01 98.3919 156.405 95.3829 158.961 93.5063C159.123 93.4092 159.511 93.0209 159.737 93.3445C159.543 95.5123 160.708 97.2918 162.52 98.2948C163.135 98.3919 163.717 98.5537 164.235 98.1654C166.079 96.6771 167.664 94.3799 169.444 92.9562C171.191 92.1473 173.391 92.665 174.88 93.7328C176.983 95.027 179.021 96.4829 181.383 97.13C184.521 98.2948 188.76 98.1654 191.575 96.2888C192.028 95.7711 193.322 96.4182 193.29 95.4476C194.552 94.7358 196.008 93.7004 197.172 93.0209C197.949 92.3091 198.952 91.8238 199.502 90.8531C199.308 90.8531 199.049 91.0796 198.952 90.7884C199.567 90.3355 199.502 89.6236 200.02 89.1383C200.375 88.3294 199.696 87.65 200.02 86.744C200.311 85.7087 198.887 86.4528 199.017 85.5793C198.531 85.9028 198.046 85.6116 197.625 85.741C193.904 89.4295 189.86 92.3738 184.748 93.1827C178.503 92.4709 174.362 85.4822 167.567 87.2941C166.629 87.5853 165.885 88.3941 164.849 88.4589C164.591 88.0382 164.429 87.5529 164.397 87.0352C163.976 85.8704 162.682 84.9322 161.355 84.8027C159.64 85.7087 158.411 87.2294 157.084 88.5883L156.858 88.6853C155.434 90.8531 153.072 92.0179 150.71 92.7944C149.481 92.8268 148.801 91.6944 147.992 90.7884C147.248 89.3001 146.86 87.4235 145.21 86.5823C143.819 86.5499 142.621 85.9352 141.489 86.8087C140.065 89.2677 137.833 90.7884 135.956 92.6327C135.147 93.118 134.371 94.0887 133.238 94.024C131.88 92.568 133.174 90.3355 133.627 88.6853C135.406 84.3498 139.192 81.1142 142.88 78.3641C143.495 78.0405 143.754 77.3934 144.595 77.6522C145.275 77.7817 145.275 78.3964 145.663 78.817C146.439 79.1082 146.86 80.0465 147.863 79.9171C148.704 79.9818 148.445 78.9141 148.931 78.4935C149.093 78.3317 149.319 78.4935 149.481 78.5905L149.545 78.1052C148.898 77.1669 148.51 76.1315 147.928 75.1609C147.216 74.4167 146.439 73.5755 145.372 73.3814Z" fill="white"/>
<path d="M81.2114 81.5997C80.9526 81.3408 80.6937 81.4379 80.4349 81.535C80.1761 81.8585 80.1437 82.2791 80.1437 82.6998C79.4966 83.088 79.5613 84.0587 78.8819 84.4146C78.3318 85.8706 78.1053 87.6501 77.8788 89.0737C77.3935 92.8593 75.7111 96.2242 73.9315 99.395H73.7697C73.4138 99.9127 72.7991 100.786 72.0549 100.883C70.5666 99.2009 70.1783 96.9037 69.7253 94.7359C68.8841 94.0888 68.3341 93.1828 67.3958 92.7299C66.5545 92.6975 65.3898 92.3416 64.775 93.0211C63.9985 95.2212 62.5425 97.2596 61.1836 99.0715C60.763 99.5568 60.3424 100.236 59.6305 100.398C59.2423 98.5861 59.9864 96.8713 60.1806 95.1241C60.5365 93.2799 61.3454 91.5004 61.5718 89.6885C61.0542 89.9473 60.9247 89.2355 60.4071 89.2355C59.5011 89.6561 59.2099 88.556 58.6922 88.1354C58.0775 87.6825 57.5922 88.4266 57.0745 88.6855C55.7156 90.7562 55.6185 93.1505 54.7449 95.3506C54.1949 95.4801 54.3566 95.8683 54.1949 96.2889C53.4831 96.4831 53.0624 97.389 52.9654 98.0037C49.8593 102.566 46.4943 106.643 42.7735 110.59C40.6057 112.208 38.9879 115.217 35.8818 115.637C35.0406 114.537 34.9112 113.178 34.7818 111.819C34.9759 110.493 34.7818 109.005 35.6554 107.937C41.2204 106.384 45.2648 101.951 47.6915 96.839C48.5974 95.0594 49.5034 93.1505 48.9857 91.015C48.2415 89.7532 48.015 88.006 46.3649 87.5854C44.2618 87.3589 41.7705 87.456 40.4439 89.3002C37.9526 90.6915 35.9789 92.8269 34.62 95.3506C32.9052 97.6479 32.5169 100.592 30.9962 102.889C30.2521 102.922 29.2814 102.372 28.7314 103.116C27.9872 103.666 28.0519 104.669 27.9548 105.543C28.2137 106.481 29.2167 106.707 29.8961 107.225C29.4108 110.008 29.4108 113.308 30.3491 115.864C31.8698 117.579 32.7758 119.779 35.3318 119.973C35.9789 120.491 37.0466 120.296 37.7261 120.426C40.0233 119.973 41.8999 118.743 43.55 117.19C47.2062 113.47 51.0564 109.425 54.5184 104.895C54.7773 104.831 54.939 105.025 55.1332 105.057C55.9744 106.287 57.2363 107.613 58.9511 107.613C61.9601 107.484 63.3837 104.831 65.228 102.954C65.6486 102.436 65.9074 101.822 66.5545 101.66C67.8487 102.598 68.3988 104.475 69.9518 105.154C71.8608 105.995 74.4168 106.093 76.164 104.895C79.0436 102.954 80.079 99.7509 81.3085 96.7419C82.6998 93.3446 82.4409 89.5591 83.0233 85.8059L82.8615 85.3529C82.7645 85.4176 82.6998 85.547 82.538 85.4823C82.4086 84.8676 82.1821 83.994 82.1497 83.3145C81.9232 82.6351 81.5026 82.2791 81.2114 81.5997ZM44.2618 93.3446C42.6764 96.0301 40.4763 98.8773 37.8879 100.948H37.5967C38.082 97.6155 40.541 94.9624 43.2588 93.1181C43.55 92.8269 44.1324 92.924 44.2618 93.3446Z" fill="white"/>
<path d="M31.5139 84.0264C31.3521 84.1558 31.1904 84.3823 31.3845 84.5764C31.5463 84.5764 31.6757 84.544 31.7728 84.4146C31.7728 84.2528 31.708 84.0264 31.5139 84.0264Z" fill="white"/>
<path d="M54.9391 31.2551L54.5184 31.2227C54.5184 30.9962 54.6479 30.8345 54.9067 30.8992L54.9391 31.2551ZM42.8706 52.7389L42.7088 52.8683L42.6441 52.8036C42.2882 52.9977 41.997 53.4831 41.544 53.1919C41.8352 52.8036 42.3529 52.6418 42.7735 52.6418L42.8706 52.7389ZM63.6102 15.304C63.5455 15.4334 63.4161 15.5628 63.3838 15.7246L63.2867 15.6923C63.1573 15.5628 63.319 15.1422 63.6102 15.304ZM61.0218 18.7983C61.0542 19.6396 60.0512 18.8307 59.9541 19.4778C60.0188 18.766 60.7306 18.0865 61.1189 17.4071C61.1836 17.7306 60.4394 18.4101 61.0218 18.7983ZM57.851 23.8457L57.7216 24.0399C57.7863 24.1369 57.851 24.0722 57.9157 24.0722C57.9804 24.0399 58.0452 23.9752 58.0128 23.9105C57.9481 23.9428 57.8834 23.8781 57.851 23.8457ZM58.6923 21.0309L58.4658 21.3544C58.5952 21.4191 58.6923 21.2897 58.8217 21.322C58.8217 21.225 58.7893 21.0956 58.6923 21.0309ZM52.1889 35.0083C51.8653 35.1053 52.0271 34.7494 51.8653 34.62C52.1242 34.6847 52.0595 34.8465 52.1889 35.0083ZM54.5184 31.2227L54.9391 31.2551L54.9067 30.8992L54.5184 31.2227ZM73.3815 1.61776L74.0286 0.808879L74.1904 0L73.2197 0.323552L71.2784 2.94432C71.2137 3.65613 70.4048 3.17081 70.1136 3.65613C70.243 4.30324 69.3695 4.52972 69.3371 5.20918C68.2047 5.82393 68.1723 6.98871 67.234 7.82995C67.3311 8.63883 66.3281 8.89767 66.4575 9.64184C65.681 9.83597 65.4221 10.8066 64.678 11.0978C64.7427 11.4861 64.6456 11.8096 64.4515 12.1008C62.9631 13.298 62.1219 15.2393 60.9571 16.6953C59.6953 18.766 58.1746 20.7073 57.0745 22.8427C56.1686 25.1076 54.9391 27.4372 53.5154 29.5079C53.3537 29.9609 52.4801 30.4462 53.0301 30.8992C52.5771 31.3845 52.2859 31.7728 52.0918 32.4522C50.9917 33.5847 50.474 34.8789 49.6328 36.1731C49.0828 36.626 48.468 37.3702 48.5975 38.1144C48.4033 38.4379 48.1445 39.0203 48.0798 39.2792L48.1445 39.2144L48.468 39.538C48.1445 39.6998 48.2739 39.991 47.918 39.991C47.7562 40.3792 48.2092 40.2822 48.1445 40.6057L47.8209 40.7675C47.5621 41.3822 47.4327 42.0617 47.0444 42.6441C47.9503 43.8412 46.009 43.2912 45.9767 44.0354C46.0414 44.003 46.0737 44.0677 46.1385 44.1001C46.1385 44.5531 46.4297 45.1031 45.8796 45.3619C45.4266 44.9413 45.2649 45.459 44.7148 45.3619C44.5854 45.7502 44.0677 46.1385 44.2619 46.5914C44.6501 46.6238 44.5854 46.1708 44.8119 45.9767C45.8149 45.8796 44.7795 46.6238 45.0384 46.915C44.003 46.915 44.5531 47.9503 43.9383 48.468C43.3559 48.371 44.1324 47.7886 43.55 47.6915C43.5177 47.7239 43.453 47.7562 43.4853 47.8209C43.1618 48.1445 42.7412 48.8563 43.0324 49.1475L43.1618 48.9857C43.7442 48.8563 43.6471 49.5034 43.8736 49.7622C43.7765 49.8593 43.7118 49.9887 43.55 49.924C43 48.7269 43.1941 50.5388 42.4823 50.1505C42.3205 50.7329 41.5764 51.1535 41.8676 51.8006C40.994 52.0271 41.3822 53.1595 40.6057 53.4184C41.1234 54.3243 39.6674 54.1949 39.7645 54.9714L40.0557 55.1332C39.991 55.5862 40.2822 55.6832 40.444 56.0715C41.447 56.3627 40.1204 57.2686 40.994 57.6245C40.7675 58.3363 40.2822 57.5598 39.8292 57.6892V58.0775C39.2145 58.304 38.5997 58.4658 38.2762 59.0805C38.1791 59.9865 37.2731 60.4718 37.2731 61.5072C37.6291 61.6042 37.5643 61.9925 37.6614 62.2837C37.6938 62.769 37.1114 63.2543 36.6584 63.0602C36.3348 63.772 35.9466 64.3544 35.8819 65.228C35.3318 65.7457 35.0406 66.3604 34.62 66.9428C34.4259 67.7517 33.4876 67.7193 33.3905 68.5606C34.2641 68.8518 33.0346 69.4989 33.5523 69.9519C33.5847 70.3725 33.5523 70.7931 33.067 71.0519C33.1317 71.9255 31.9669 71.4078 31.9022 71.9902C32.614 72.5726 32.1934 73.608 32.2905 74.3845C32.0963 74.5139 31.9022 74.4169 31.7728 74.7081C32.064 75.5169 31.2874 76.067 31.061 76.8759C31.4492 77.2965 30.6727 77.62 30.8345 78.1053C29.9609 78.9466 29.5726 80.0467 29.6697 81.2114L29.1844 81.3085C29.0549 81.7291 28.0196 82.1174 28.7961 82.538C28.0196 82.538 28.3755 83.4116 27.9549 83.7999C27.7284 84.1881 27.599 84.7058 27.3401 85.0294C27.8254 85.9353 26.693 86.7118 27.4048 87.4236C27.1136 87.5854 27.3078 88.2002 26.7901 87.9737C26.5959 88.3619 26.5312 88.8473 26.5636 89.2355C27.5342 89.9797 25.69 90.2062 26.1753 91.0151C25.7871 91.5004 26.3047 92.6005 25.3017 92.5681C25.237 93.5064 24.1693 94.4123 24.8488 95.2859C24.0722 95.8036 25.0429 96.3213 24.6223 97.0655C24.3634 97.3567 24.234 97.9391 23.684 97.9067C23.7487 98.2626 23.5546 98.4891 23.6193 98.845C23.0045 99.9774 22.8427 100.98 22.5839 102.275C23.0045 102.501 22.4868 102.728 22.4545 102.954C22.3898 103.925 22.1309 105.025 21.678 105.834C21.9368 107.193 20.5455 107.872 20.5132 109.166L20.1896 108.875C19.9955 107.775 19.6396 106.448 19.5749 105.284C18.5072 99.848 17.5689 94.2506 17.0835 88.6855C15.8864 78.9142 16.3394 69.143 14.8187 59.3394L13.9127 58.2393C12.1655 57.1392 10.839 58.854 9.383 59.3394C8.31528 60.763 8.28292 62.6396 7.92701 64.3868C8.12115 67.2664 6.79458 70.3401 6.21219 73.3168C6.11513 74.0286 6.14748 74.5139 5.82393 75.161C5.72686 76.5847 5.01505 77.9759 5.27389 79.3672C5.17683 79.4319 5.11211 79.5937 4.98269 79.5937C4.95034 80.9526 4.43266 82.085 4.33559 83.4116C4.75621 84.5117 3.65613 85.2235 3.81791 86.3559C4.20617 86.9383 3.36494 87.4883 3.65613 88.1354C3.39729 88.7178 3.49436 89.1708 3.26787 89.7532C3.59142 90.368 2.62077 90.5944 2.87961 91.2415C2.49135 91.6622 2.62077 92.2769 2.49135 92.7946C2.71783 92.924 2.75019 93.1829 2.71783 93.4093C2.49135 93.927 2.58841 94.7035 2.10309 94.9624C2.07073 95.1565 2.1678 95.2859 2.26486 95.4477C1.61776 98.1008 1.35892 100.916 0.9383 103.666C0.711814 105.931 0.420617 108.163 0 110.331L0.161776 110.719L0.452972 109.813C0.905944 110.363 0.291196 110.881 0.388262 111.496C0.0647103 112.046 0.647103 112.078 0.9383 112.208C0.841234 112.725 1.42363 112.758 1.2295 113.308H1.55305L2.71783 107.937C3.13845 107.257 2.75019 106.125 3.65613 105.769C3.85026 105.51 3.59142 105.251 3.55907 104.992C3.94733 103.989 4.33559 102.922 4.72385 102.048C6.5681 95.0594 7.89466 87.8766 9.383 80.7585C9.70655 79.0436 9.93303 77.2965 10.7096 75.7758C11.5831 77.2318 10.9684 79.3996 11.2596 80.985C11.7773 85.3853 12.295 89.7856 12.7479 94.1859C13.4597 99.6215 14.6245 105.575 15.3687 111.205C15.854 112.046 15.6923 112.887 16.0805 113.761C16.2423 115.799 16.6306 117.837 16.9217 119.746C18.0865 124.503 17.6012 129.421 17.9248 134.403L18.8631 135.665C19.219 135.568 19.3484 135.956 19.5749 136.118C20.2867 136.118 21.0309 136.118 21.7427 136.118C22.2603 135.536 23.4898 135.827 23.231 134.662C22.9722 129.874 22.9722 125.7 23.5222 121.073C24.234 118.355 24.0075 115.443 24.9135 112.919C24.7841 111.14 25.7224 109.813 25.8518 108.163C26.2724 105.251 27.4695 102.631 27.7284 99.6215C28.0843 99.0391 28.2461 98.392 28.2784 97.6802C28.699 96.8713 28.7637 96.1595 28.8932 95.1889C28.9902 94.6388 29.5079 94.0564 29.1844 93.5064C29.9285 92.7299 29.9285 91.371 30.4462 90.4003H30.5109C30.4462 89.8179 30.608 89.1385 30.8345 88.5884C29.605 87.4236 32.0316 87.8442 31.7728 86.5177C31.7404 85.547 32.161 84.5764 32.4522 83.6381L32.064 83.4116C32.064 83.2498 32.2257 83.1851 32.2905 83.088C32.9376 82.9586 32.6787 82.1497 32.8405 81.6968C34.2318 80.8555 31.6757 80.7261 32.6787 79.7555L32.7758 79.8202C32.5816 80.1437 33.0346 80.3702 33.3258 80.3702C33.3258 80.2084 33.5847 80.0467 33.3905 79.9172C33.2935 79.8525 33.1317 79.626 33.3905 79.529C34.5553 79.2378 33.5523 78.1053 34.3288 77.4259C35.2024 77.167 35.1701 75.9052 35.2671 75.161C35.8819 74.2874 35.4936 72.9285 36.5613 72.2814C36.5937 71.3755 37.4026 70.5019 36.8849 69.6607C37.3055 69.0459 37.2731 68.237 37.8879 67.7193C38.1791 67.3634 37.6291 66.9428 38.1144 66.7163C38.0497 66.1016 38.7938 66.4251 39.0527 66.0045C38.8909 65.0662 39.6027 64.4838 39.8292 63.6102C40.0557 63.2867 39.6674 62.8984 40.1528 62.8337C39.6351 61.7983 41.1234 61.3454 40.6057 60.3424C41.2205 60.0512 40.6704 59.1452 41.4793 59.0805C41.4793 59.0158 41.4793 58.9187 41.3822 58.854C41.8352 58.5952 41.8029 57.9804 41.997 57.5275C42.4823 57.4951 42.9353 57.1392 42.8706 56.6215C43.5824 56.298 42.7088 55.5862 43.4853 55.3597C43.0324 54.6802 43.6795 53.936 43.6471 53.1919C43.7118 52.6095 44.1648 53.3213 44.3266 52.8683C44.1648 51.6712 44.909 50.8623 45.2002 49.8593C45.5884 48.8886 46.3326 49.1151 46.915 48.2092C46.8826 47.4003 47.918 46.8503 47.2062 46.1385C47.3356 45.6855 47.8533 45.4266 48.1445 45.2649C49.3093 43.9707 49.4063 42.2235 50.4093 40.8322C50.5711 40.1527 50.3123 39.5704 50.7005 38.988C51.1535 38.3085 51.4447 37.7261 51.8653 37.1114C51.8977 36.1407 53.0625 36.0436 52.9654 35.0083C53.1919 35.1053 53.2889 35.0083 53.5154 34.9436C53.3213 34.0376 54.0331 33.5199 53.9037 32.6787C54.0008 32.2257 54.3243 31.9345 54.8096 31.7728C55.1979 31.1904 55.6509 30.6727 55.845 30.1227C56.395 30.0903 56.6215 29.3461 56.848 28.8932C55.8126 28.3755 57.1392 27.7284 57.1392 27.1136C57.4304 26.8548 57.754 27.2754 57.851 26.7901C58.0775 26.4989 57.754 26.5312 57.6893 26.3371L58.0775 25.9488C58.854 25.0752 58.757 24.0075 59.5658 23.2957C60.6336 22.9398 60.2453 21.6132 60.8924 20.9014C61.4424 19.3484 62.8661 18.6042 63.2867 17.0188C64.8721 15.4981 65.4545 13.5568 66.781 11.9714C66.9428 11.9391 67.0399 12.2626 67.1693 12.0361C67.7194 11.3243 68.1076 10.7743 68.7224 10.2566C68.3664 9.54477 69.5636 9.18886 69.3371 8.37999C70.7931 8.1535 69.7577 6.63281 71.0519 6.2769C70.7607 5.3386 71.6343 5.43567 71.7637 4.59443C73.0903 4.78856 71.9902 3.39729 72.9932 3.1061L73.3815 1.61776Z" fill="white"/>
</svg>
