<svg width="200" height="104" viewBox="0 0 200 104" fill="none" xmlns="http://www.w3.org/2000/svg">
<path d="M1.95634 94.0539H1.91381V92.8018H0V103.758H1.99887V98.6499C1.99887 95.676 3.13297 94.495 5.07513 94.495H5.37284V92.5741H4.91919C3.57244 92.5741 2.6368 92.9867 1.95634 94.0539Z" fill="white"/>
<path d="M11.6671 102.079C9.59739 102.079 8.0947 100.528 8.0947 98.2942C8.0947 96.0602 9.59739 94.5093 11.6671 94.5093C12.9005 94.5093 13.4675 94.8792 14.148 95.5622L8.76099 98.5788L9.58321 100.172L16.9549 96.0602C15.9342 93.9401 14.2189 92.5884 11.6813 92.5884C8.66175 92.5884 6.02495 94.9219 6.02495 98.2942C6.02495 101.666 8.66175 104 11.6813 104C14.8143 104 17.1392 101.809 17.366 98.906L15.3388 98.6499C14.9135 100.656 14.0346 102.079 11.6671 102.079Z" fill="white"/>
<path d="M24.199 92.5741C20.6975 92.5741 18.5568 95.0357 18.5568 98.1661C18.5568 101.382 20.7825 103.986 23.9297 103.986C25.3189 103.986 26.0845 103.53 26.8925 102.933V100.557C26.2121 101.425 25.2764 102.065 24.1423 102.065C22.0442 102.065 20.5699 100.357 20.5699 98.3226C20.5699 96.2452 21.9592 94.4808 24.1565 94.4808C25.9711 94.4808 27.7006 95.5337 27.7006 97.5827V103.744H29.6994V97.7677C29.6994 94.6373 27.5588 92.5741 24.199 92.5741Z" fill="white"/>
<path d="M31.5849 98.28C31.5849 101.795 34.5194 103.758 37.0712 103.758H38.985V101.837H37.4398C35.5543 101.837 33.683 100.599 33.683 98.28C33.683 95.9464 35.5543 94.7227 37.4398 94.7227H38.985V92.8018H37.0712C34.5194 92.8018 31.5849 94.7654 31.5849 98.28Z" fill="white"/>
<path d="M45.2793 92.5741C44.1168 92.5741 43.0961 93.0721 42.4865 93.7551V87.7789H40.4877V103.758H42.4865V97.3693C42.4865 95.676 43.6915 94.495 45.1517 94.495C46.5835 94.495 47.8169 95.1353 47.8169 97.3693V103.758H49.8157V97.3693C49.8015 93.6697 47.8027 92.5741 45.2793 92.5741Z" fill="white"/>
<path d="M60.4621 90.0555H58.279L58.2648 98.0523H54.6498L57.0456 90.0555H54.8767L51.5877 100.059H58.2648V103.758H60.4479V100.059H62.8437V98.0523H60.4479L60.4621 90.0555Z" fill="white"/>
<path d="M69.8186 102.079C67.7488 102.079 66.2461 100.528 66.2461 98.2942C66.2461 96.0602 67.7488 94.5093 69.8186 94.5093C71.0519 94.5093 71.6189 94.8792 72.2994 95.5622L66.9124 98.5788L67.7346 100.172L75.1063 96.0602C74.0856 93.9401 72.3703 92.5884 69.8327 92.5884C66.8132 92.5884 64.1764 94.9219 64.1764 98.2942C64.1764 101.666 66.8132 104 69.8327 104C72.9657 104 75.2906 101.809 75.5174 98.906L73.4902 98.6499C73.0791 100.656 72.186 102.079 69.8186 102.079Z" fill="white"/>
<path d="M81.8117 92.5741C79.1466 92.5741 77.1477 94.495 77.1477 97.3693V103.758H79.1466V97.3693C79.1466 95.676 80.3799 94.495 81.8117 94.495C83.2435 94.495 84.4769 95.676 84.4769 97.3693V103.758H86.4758V97.3693C86.4758 94.495 84.4627 92.5741 81.8117 92.5741Z" fill="white"/>
<path d="M90.8421 90.0698H88.8432V100.229C88.8432 102.392 90.0198 103.772 92.0754 103.772H94.7547V101.851H92.3448C91.3241 101.851 90.8421 101.51 90.8421 100.485V94.7369H94.7547V92.816H90.8421V90.0698Z" fill="white"/>
<path d="M101.418 102.079C99.3479 102.079 97.8452 100.528 97.8452 98.2942C97.8452 96.0602 99.3479 94.5093 101.418 94.5093C102.651 94.5093 103.218 94.8792 103.898 95.5622L98.5115 98.5788L99.3337 100.172L106.705 96.0602C105.685 93.9401 103.969 92.5884 101.432 92.5884C98.4122 92.5884 95.7754 94.9219 95.7754 98.2942C95.7754 101.666 98.4122 104 101.432 104C104.565 104 106.89 101.809 107.117 98.906L105.089 98.6499C104.664 100.656 103.771 102.079 101.418 102.079Z" fill="white"/>
<path d="M110.661 94.0539H110.618V92.8018H108.704V103.758H110.717V98.6499C110.717 95.676 111.851 94.495 113.794 94.495H114.091V92.5741H113.638C112.277 92.5741 111.355 92.9867 110.661 94.0539Z" fill="white"/>
<path d="M117.38 90.0698H115.381V100.229C115.381 102.392 116.558 103.772 118.614 103.772H121.293V101.851H118.883C117.862 101.851 117.38 101.51 117.38 100.485V94.7369H121.293V92.816H117.38V90.0698Z" fill="white"/>
<path d="M127.842 92.5741C124.341 92.5741 122.2 95.0357 122.2 98.1661C122.2 101.382 124.426 103.986 127.573 103.986C128.962 103.986 129.728 103.53 130.536 102.933V100.557C129.855 101.425 128.92 102.065 127.786 102.065C125.688 102.065 124.213 100.357 124.213 98.3226C124.213 96.2452 125.602 94.4808 127.8 94.4808C129.614 94.4808 131.344 95.5337 131.344 97.5827V103.744H133.343V97.7677C133.343 94.6373 131.202 92.5741 127.842 92.5741Z" fill="white"/>
<path d="M138.418 92.8018H136.419V103.758H138.418V92.8018Z" fill="white"/>
<path d="M137.411 89.1591C136.632 89.1591 136.206 89.7567 136.206 90.3686C136.206 90.9804 136.632 91.5781 137.411 91.5781C138.191 91.5781 138.616 90.9804 138.616 90.3686C138.616 89.7425 138.191 89.1591 137.411 89.1591Z" fill="white"/>
<path d="M146.257 92.5741C143.592 92.5741 141.593 94.495 141.593 97.3693V103.758H143.592V97.3693C143.592 95.676 144.826 94.495 146.257 94.495C147.689 94.495 148.923 95.676 148.923 97.3693V103.758H150.921V97.3693C150.921 94.495 148.923 92.5741 146.257 92.5741Z" fill="white"/>
<path d="M163.34 92.5741C162.107 92.5741 160.887 93.0721 160.15 94.1251C159.427 93.0721 158.194 92.5741 156.961 92.5741C154.735 92.5741 153.048 94.2673 153.048 96.3163V103.758H155.047V96.7717C155.047 95.3772 155.826 94.495 157.003 94.495C158.293 94.495 159.144 95.2207 159.144 97.0989V103.758H161.143V97.0989C161.143 95.2207 161.979 94.495 163.283 94.495C164.46 94.495 165.24 95.3914 165.24 96.7717V103.758H167.238V96.3163C167.253 94.2673 165.566 92.5741 163.34 92.5741Z" fill="white"/>
<path d="M174.709 102.079C172.64 102.079 171.137 100.528 171.137 98.2942C171.137 96.0602 172.64 94.5093 174.709 94.5093C175.943 94.5093 176.51 94.8792 177.19 95.5622L171.803 98.5788L172.625 100.172L179.997 96.0602C178.976 93.9401 177.261 92.5884 174.724 92.5884C171.704 92.5884 169.067 94.9219 169.067 98.2942C169.067 101.666 171.704 104 174.724 104C177.857 104 180.181 101.809 180.408 98.906L178.381 98.6499C177.97 100.656 177.077 102.079 174.709 102.079Z" fill="white"/>
<path d="M186.703 92.5741C184.037 92.5741 182.039 94.495 182.039 97.3693V103.758H184.037V97.3693C184.037 95.676 185.271 94.495 186.703 94.495C188.134 94.495 189.368 95.676 189.368 97.3693V103.758H191.367V97.3693C191.352 94.495 189.354 92.5741 186.703 92.5741Z" fill="white"/>
<path d="M199.631 92.8018H195.719V90.0698H193.72V100.229C193.72 102.392 194.896 103.772 196.952 103.772H199.631V101.851H197.221C196.201 101.851 195.719 101.51 195.719 100.485V94.7369H199.631V92.8018Z" fill="white"/>
<path d="M199.986 42.1037C199.986 18.8535 181.202 0 158.024 0C137.142 0 119.819 15.3247 116.615 35.3876H110.363V0.412642H89.7647V35.3876H72.4695L82.0244 0.412642H61.412C56.9748 0.412642 45.095 0.412642 42.2455 0.412642C36.4191 0.412642 30.947 1.52251 25.8151 3.75646C20.6833 5.99042 16.2036 9.03544 12.4043 12.8915C8.59087 16.7476 5.57131 21.2582 3.3598 26.4091C1.11993 31.56 0 37.0951 0 43.0144V84.2216H20.3856V43.0144C20.3856 40.0263 20.9668 37.1805 22.1576 34.5054C23.3343 31.8303 24.9079 29.4968 26.8925 27.5047C28.8631 25.5269 31.1738 23.9617 33.8106 22.8091C36.4474 21.6566 39.0984 21.2297 42.0754 21.2297C42.8409 21.2297 44.4429 21.2439 45.1375 21.2866C45.7896 21.3151 53.7567 21.3009 55.5004 21.3151L45.7471 55.7494H89.7647V84.2216H110.363V55.792H118.344C124.001 72.3262 139.637 84.2216 158.038 84.2216C158.279 84.2216 158.52 84.2216 158.761 84.2216H193.748V63.803H193.521C193.521 63.7888 193.536 63.7888 193.536 63.7745L158.293 63.7888C158.208 63.7888 158.137 63.7888 158.052 63.7888C146.116 63.7888 136.433 54.0703 136.433 42.0895C136.433 30.1086 146.116 20.3902 158.052 20.3902C167.65 20.3902 175.787 26.6794 178.608 35.3591H149.263V55.7636H200V42.246C199.972 42.2175 199.986 42.1606 199.986 42.1037ZM191.211 45.5898C191.211 45.5898 191.182 46.7281 189.977 46.7281C187.978 46.7281 159.229 46.7281 159.229 46.7281C158.605 46.7281 158.095 46.2159 158.095 45.5898C158.095 44.9637 158.605 44.4515 159.229 44.4515H188.957C188.957 43.5408 188.957 42.3598 188.957 42.0041C188.957 22.8091 172.909 10.9137 158.024 10.9137C138.659 10.9137 127.091 26.6937 127.091 41.9614C127.091 56.9588 139.354 73.0092 157.599 73.0092H183.626C184.25 73.0092 184.76 73.5214 184.76 74.1475C184.76 74.7736 184.25 75.2858 183.626 75.2858H157.599C148.568 75.2858 140.176 71.5578 133.952 64.8132C129.288 59.7477 126.212 53.3446 125.206 46.7566H101.177V74.1333C101.177 74.7593 100.666 75.2716 100.043 75.2716C99.4188 75.2716 98.9084 74.7593 98.9084 74.1333V46.7424C98.9084 46.7424 60.8024 46.7424 59.2713 46.7424C58.1798 46.7424 57.6411 46.0167 57.9813 44.9211C58.3924 43.5693 67.281 11.9097 67.281 11.9097H41.8202C28.8489 11.9097 21.5197 18.3412 17.6637 23.7483C12.9572 30.3221 11.2986 38.0057 11.2986 42.6017C11.2986 52.0925 11.3553 73.9198 11.3553 74.1333C11.3553 74.7593 10.8449 75.2716 10.2212 75.2716C9.59739 75.2716 9.08704 74.7593 9.08704 74.1333C9.08704 73.9198 9.03034 52.0925 9.03034 42.5875C9.03034 37.6642 10.8166 29.4256 15.8208 22.4107C19.9887 16.5768 27.8991 9.61883 41.8202 9.61883H68.4009C68.4718 9.61883 68.9113 9.63305 69.0672 9.67574C69.6768 9.84649 70.017 10.4726 69.8469 11.0844L60.4196 44.4515H98.8942V10.7287C98.8942 10.1026 99.4046 9.59037 100.028 9.59037C100.652 9.59037 101.162 10.1026 101.162 10.7287V44.4515H124.922C124.851 43.612 124.823 42.7867 124.823 41.9472C124.823 33.5521 128.112 25.1854 133.867 18.9958C140.077 12.3081 148.653 8.62279 158.024 8.62279C166.331 8.62279 174.653 11.9808 180.862 17.829C187.539 24.104 191.211 32.6841 191.211 41.9899C191.225 42.3598 191.211 44.6792 191.211 45.5898Z" fill="white"/>
</svg>
