<svg width="230" height="88" viewBox="0 0 230 88" fill="none" xmlns="http://www.w3.org/2000/svg">
<path d="M65.2425 53.0306C61.7363 61.3381 53.4786 67.2158 43.9101 67.2158C31.1303 67.2158 20.7754 56.8067 20.7754 44.0334C20.7754 31.2273 31.1631 20.8511 43.9101 20.8511C53.7407 20.8511 62.1295 27.0243 65.5047 35.7259H72.55C68.9454 23.2809 57.4764 14.1525 43.9101 14.1525C27.4602 14.1525 14.0906 27.5496 14.0906 44.0334C14.0906 60.5172 27.4602 73.9144 43.9101 73.9144C57.2142 73.9144 68.5194 65.1471 72.3534 53.0634H65.2425V53.0306Z" fill="white"/>
<path d="M80.5127 43.705C80.5127 64.0963 63.9645 80.7114 43.5824 80.7114C23.233 80.7114 6.65205 64.1291 6.65205 43.705C6.65205 23.3137 23.2003 6.69859 43.5824 6.69859C63.9645 6.69859 80.5127 23.2809 80.5127 43.705ZM87.1976 43.705C87.1976 19.6032 67.6346 0 43.6152 0C19.5629 0 0 19.6032 0 43.705C0 67.8068 19.5629 87.41 43.6152 87.41C67.6346 87.3772 87.1976 67.774 87.1976 43.705Z" fill="white"/>
<path fill-rule="evenodd" clip-rule="evenodd" d="M43.6152 28.075C34.8332 28.075 27.6896 35.2333 27.6896 44.0334C27.6896 52.8335 34.8332 59.9918 43.6152 59.9918C52.3972 59.9918 59.5408 52.8335 59.5408 44.0334C59.5081 35.2004 52.3972 28.075 43.6152 28.075ZM42.7305 53.1618C40.9937 53.1618 39.257 52.7021 37.3892 51.9469L37.553 47.5468H38.9948C39.683 49.123 41.1576 50.0424 42.7305 50.0424C44.1068 50.0424 44.9915 49.2543 44.9915 48.3021C44.9915 46.8244 43.4186 46.3647 41.387 45.4782C38.7982 44.3289 37.4875 42.6542 37.4875 40.5527C37.4875 37.5646 39.7485 35.4959 43.8118 35.4959C45.3847 35.4959 46.8593 35.8571 48.4978 36.481V40.7169H46.9904C46.1712 39.2393 44.9915 38.4512 43.7135 38.4512C42.5666 38.4512 41.7802 39.1736 41.7802 40.0273C41.7802 41.5706 43.5497 42.0632 46.4661 43.4095C48.2684 44.2632 49.4808 45.9379 49.4808 47.7767C49.4481 50.8305 46.8593 53.1618 42.7305 53.1618Z" fill="white"/>
<path d="M124.628 24.9581H132.543C138.367 24.9581 140.911 28.1307 140.911 35.6657C140.911 42.9174 138.028 46.9964 133.731 46.9964H129.999V62.123H124.628V24.9581ZM132.091 41.7276C134.748 41.7276 135.427 40.1413 135.427 35.8356C135.427 31.6999 134.635 30.3402 131.921 30.3402H129.999V41.7276H132.091Z" fill="white"/>
<path d="M124.628 24.9581H132.543C138.367 24.9581 140.911 28.1307 140.911 35.6657C140.911 42.9174 138.028 46.9964 133.731 46.9964H129.999V62.123H124.628V24.9581ZM132.091 41.7276C134.748 41.7276 135.427 40.1413 135.427 35.8356C135.427 31.6999 134.635 30.3402 131.921 30.3402H129.999V41.7276H132.091Z" fill="white"/>
<path d="M154.762 24.2217C159.625 24.2217 162.847 27.7342 162.847 33.7395V52.7752C162.847 59.347 159.794 62.9162 154.536 62.9162C149.222 62.9162 146.282 59.4036 146.282 52.6052V33.5695C146.282 27.7909 149.391 24.2217 154.762 24.2217ZM157.307 33.173C157.307 30.5669 156.345 29.3205 154.536 29.3205C152.727 29.3205 151.766 30.5669 151.766 33.173V53.9082C151.766 56.5143 152.727 57.8173 154.536 57.8173C156.345 57.8173 157.307 56.5143 157.307 53.9082V33.173Z" fill="white"/>
<path d="M154.762 24.2217C159.625 24.2217 162.847 27.7342 162.847 33.7395V52.7752C162.847 59.347 159.794 62.9162 154.536 62.9162C149.222 62.9162 146.282 59.4036 146.282 52.6052V33.5695C146.282 27.7909 149.391 24.2217 154.762 24.2217ZM157.307 33.173C157.307 30.5669 156.345 29.3205 154.536 29.3205C152.727 29.3205 151.766 30.5669 151.766 33.173V53.9082C151.766 56.5143 152.727 57.8173 154.536 57.8173C156.345 57.8173 157.307 56.5143 157.307 53.9082V33.173Z" fill="white"/>
<path d="M168.388 24.9581H184.953V30.3402H179.356V62.123H173.985V30.3402H168.388V24.9581Z" fill="white"/>
<path d="M168.388 24.9581H184.953V30.3402H179.356V62.123H173.985V30.3402H168.388V24.9581Z" fill="white"/>
<path d="M106.988 51.8719C107.158 55.6111 108.289 57.424 110.55 57.424C112.529 57.424 113.83 56.0077 113.83 53.8548C113.83 50.7389 111.851 48.8693 108.967 45.81C105.066 41.6743 102.296 38.615 102.296 33.6861C102.296 28.304 106.084 24.3949 110.607 24.3949C115.073 24.3949 118.239 27.7941 118.635 33.6294L113.377 34.4226C113.208 31.1933 112.416 29.777 110.437 29.777C108.741 29.777 107.554 31.08 107.554 33.1762C107.554 36.5188 109.872 38.7849 112.925 41.9575C116.6 45.81 118.918 48.586 118.918 53.7415C118.918 59.2369 115.356 62.9761 110.607 62.9761C105.349 62.9761 101.957 59.2369 101.731 52.7217L106.988 51.8719Z" fill="white"/>
<path d="M106.988 51.8719C107.158 55.6111 108.289 57.424 110.55 57.424C112.529 57.424 113.83 56.0077 113.83 53.8548C113.83 50.7389 111.851 48.8693 108.967 45.81C105.066 41.6743 102.296 38.615 102.296 33.6861C102.296 28.304 106.084 24.3949 110.607 24.3949C115.073 24.3949 118.239 27.7941 118.635 33.6294L113.377 34.4226C113.208 31.1933 112.416 29.777 110.437 29.777C108.741 29.777 107.554 31.08 107.554 33.1762C107.554 36.5188 109.872 38.7849 112.925 41.9575C116.6 45.81 118.918 48.586 118.918 53.7415C118.918 59.2369 115.356 62.9761 110.607 62.9761C105.349 62.9761 101.957 59.2369 101.731 52.7217L106.988 51.8719Z" fill="white"/>
<path d="M221.363 24.2217C226.226 24.2217 229.448 27.7342 229.448 33.7395V52.7752C229.448 59.347 226.395 62.9162 221.137 62.9162C215.823 62.9162 212.883 59.4036 212.883 52.6052V33.5695C212.939 27.7909 216.049 24.2217 221.363 24.2217ZM223.908 33.173C223.908 30.5669 222.946 29.3205 221.137 29.3205C219.328 29.3205 218.367 30.5669 218.367 33.173V53.9082C218.367 56.5143 219.328 57.8173 221.137 57.8173C222.946 57.8173 223.908 56.5143 223.908 53.9082V33.173Z" fill="white"/>
<path d="M221.363 24.2217C226.226 24.2217 229.448 27.7342 229.448 33.7395V52.7752C229.448 59.347 226.395 62.9162 221.137 62.9162C215.823 62.9162 212.883 59.4036 212.883 52.6052V33.5695C212.939 27.7909 216.049 24.2217 221.363 24.2217ZM223.908 33.173C223.908 30.5669 222.946 29.3205 221.137 29.3205C219.328 29.3205 218.367 30.5669 218.367 33.173V53.9082C218.367 56.5143 219.328 57.8173 221.137 57.8173C222.946 57.8173 223.908 56.5143 223.908 53.9082V33.173Z" fill="white"/>
<path d="M190.833 33.5695C190.833 27.7909 193.943 24.2217 199.257 24.2217C204.119 24.2217 207.342 27.7342 207.342 33.7395V37.3087H201.801V33.2296C201.801 30.6236 200.84 29.3772 199.031 29.3772C197.222 29.3772 196.261 30.6236 196.261 33.2296V53.9649C196.261 56.5709 197.222 57.874 199.031 57.874C200.84 57.874 201.801 56.5709 201.801 53.9649V48.9227H207.342V52.8318C207.342 59.4036 204.289 62.9728 199.031 62.9728C193.604 62.9728 190.777 59.4603 190.777 52.6618V33.5695H190.833Z" fill="white"/>
<path d="M190.833 33.5695C190.833 27.7909 193.943 24.2217 199.257 24.2217C204.119 24.2217 207.342 27.7342 207.342 33.7395V37.3087H201.801V33.2296C201.801 30.6236 200.84 29.3772 199.031 29.3772C197.222 29.3772 196.261 30.6236 196.261 33.2296V53.9649C196.261 56.5709 197.222 57.874 199.031 57.874C200.84 57.874 201.801 56.5709 201.801 53.9649V48.9227H207.342V52.8318C207.342 59.4036 204.289 62.9728 199.031 62.9728C193.604 62.9728 190.777 59.4603 190.777 52.6618V33.5695H190.833Z" fill="white"/>
</svg>
