<svg id="Layer_1" data-name="Layer 1" xmlns="http://www.w3.org/2000/svg" viewBox="0 0 94.73 36.09"><defs><style>.cls-1{fill:#484848;}</style></defs><title>spotco</title><path class="cls-1" d="M26.94,21.89A9.58,9.58,0,1,1,27,14.75H30a12.32,12.32,0,1,0-.08,7.16H26.94Z"/><path class="cls-1" d="M33.24,18A15.25,15.25,0,1,1,18,2.77,15.28,15.28,0,0,1,33.24,18ZM36,18a18,18,0,1,0-18,18A18,18,0,0,0,36,18Z"/><path class="cls-1" d="M18,11.59a6.59,6.59,0,1,0,6.57,6.59A6.59,6.59,0,0,0,18,11.59Zm-.37,10.36a5.88,5.88,0,0,1-2.21-.5l.07-1.82h.6a1.68,1.68,0,0,0,1.54,1c.57,0,.93-.33.93-.72,0-.61-.65-.8-1.49-1.17a2.26,2.26,0,0,1-1.61-2c0-1.23.93-2.09,2.61-2.09a5.33,5.33,0,0,1,1.93.41v1.75H19.4A1.58,1.58,0,0,0,18,15.87a.72.72,0,0,0-.8.65c0,.64.73.84,1.93,1.4a2.05,2.05,0,0,1,1.24,1.8C20.41,21,19.35,21.95,17.64,21.95Z"/><path class="cls-1" d="M51.45,10.3h3.27c2.4,0,3.45,1.31,3.45,4.42s-1.19,4.68-3,4.68H53.67v6.25H51.45Zm3.08,6.92c1.1,0,1.38-.65,1.38-2.43s-.33-2.27-1.45-2.27h-.79v4.7Z"/><path class="cls-1" d="M51.45,10.3h3.27c2.4,0,3.45,1.31,3.45,4.42s-1.19,4.68-3,4.68H53.67v6.25H51.45Zm3.08,6.92c1.1,0,1.38-.65,1.38-2.43s-.33-2.27-1.45-2.27h-.79v4.7Z"/><path class="cls-1" d="M63.89,10c2,0,3.34,1.45,3.34,3.93v7.86C67.23,24.5,66,26,63.8,26s-3.41-1.45-3.41-4.26V13.86C60.39,11.47,61.68,10,63.89,10Zm1.05,3.7c0-1.08-.4-1.59-1.14-1.59s-1.14.51-1.14,1.59v8.56c0,1.08.4,1.61,1.14,1.61s1.14-.54,1.14-1.61Z"/><path class="cls-1" d="M63.89,10c2,0,3.34,1.45,3.34,3.93v7.86C67.23,24.5,66,26,63.8,26s-3.41-1.45-3.41-4.26V13.86C60.39,11.47,61.68,10,63.89,10Zm1.05,3.7c0-1.08-.4-1.59-1.14-1.59s-1.14.51-1.14,1.59v8.56c0,1.08.4,1.61,1.14,1.61s1.14-.54,1.14-1.61Z"/><path class="cls-1" d="M69.52,10.3h6.84v2.22H74V25.65H71.83V12.53H69.52Z"/><path class="cls-1" d="M69.52,10.3h6.84v2.22H74V25.65H71.83V12.53H69.52Z"/><path class="cls-1" d="M44.17,21.42c.07,1.54.54,2.29,1.47,2.29A1.33,1.33,0,0,0,47,22.23c0-1.29-.82-2.06-2-3.32-1.61-1.71-2.75-3-2.75-5a3.6,3.6,0,0,1,3.43-3.84c1.84,0,3.15,1.4,3.31,3.81l-2.17.33c-.07-1.33-.4-1.92-1.21-1.92s-1.19.54-1.19,1.4c0,1.38,1,2.32,2.22,3.63,1.52,1.59,2.47,2.74,2.47,4.87A3.5,3.5,0,0,1,45.66,26c-2.17,0-3.57-1.54-3.66-4.23Z"/><path class="cls-1" d="M44.17,21.42c.07,1.54.54,2.29,1.47,2.29A1.33,1.33,0,0,0,47,22.23c0-1.29-.82-2.06-2-3.32-1.61-1.71-2.75-3-2.75-5a3.6,3.6,0,0,1,3.43-3.84c1.84,0,3.15,1.4,3.31,3.81l-2.17.33c-.07-1.33-.4-1.92-1.21-1.92s-1.19.54-1.19,1.4c0,1.38,1,2.32,2.22,3.63,1.52,1.59,2.47,2.74,2.47,4.87A3.5,3.5,0,0,1,45.66,26c-2.17,0-3.57-1.54-3.66-4.23Z"/><path class="cls-1" d="M91.39,10c2,0,3.34,1.45,3.34,3.93v7.86c0,2.71-1.26,4.19-3.43,4.19s-3.41-1.45-3.41-4.26V13.86C87.91,11.47,89.2,10,91.39,10Zm1.05,3.7c0-1.08-.4-1.59-1.14-1.59s-1.14.51-1.14,1.59v8.56c0,1.08.4,1.61,1.14,1.61s1.14-.54,1.14-1.61Z"/><path class="cls-1" d="M91.39,10c2,0,3.34,1.45,3.34,3.93v7.86c0,2.71-1.26,4.19-3.43,4.19s-3.41-1.45-3.41-4.26V13.86C87.91,11.47,89.2,10,91.39,10Zm1.05,3.7c0-1.08-.4-1.59-1.14-1.59s-1.14.51-1.14,1.59v8.56c0,1.08.4,1.61,1.14,1.61s1.14-.54,1.14-1.61Z"/><path class="cls-1" d="M78.79,13.86c0-2.39,1.28-3.86,3.48-3.86,2,0,3.34,1.45,3.34,3.93V15.4H83.31V13.72c0-1.08-.4-1.59-1.14-1.59S81,12.64,81,13.72v8.56c0,1.08.4,1.61,1.14,1.61s1.14-.54,1.14-1.61V20.2H85.6v1.61c0,2.71-1.26,4.19-3.43,4.19s-3.41-1.45-3.41-4.26V13.86Z"/><path class="cls-1" d="M78.79,13.86c0-2.39,1.28-3.86,3.48-3.86,2,0,3.34,1.45,3.34,3.93V15.4H83.31V13.72c0-1.08-.4-1.59-1.14-1.59S81,12.64,81,13.72v8.56c0,1.08.4,1.61,1.14,1.61s1.14-.54,1.14-1.61V20.2H85.6v1.61c0,2.71-1.26,4.19-3.43,4.19s-3.41-1.45-3.41-4.26V13.86Z"/></svg>