<svg enable-background="new 0 0 92 92" viewBox="0 0 92 92" xmlns="http://www.w3.org/2000/svg"><g fill="#484848"><path d="m70.2 33.8c.8-.8 1.4-2 1.4-3.3 0-2.6-2.2-4.8-4.9-4.8h-6.1c-.7 0-1.2.5-1.2 1.2v15.7c0 .7.5 1.2 1.2 1.2h6.7c3 0 5.5-2.5 5.5-5.5 0-1.8-1-3.5-2.6-4.5zm-8.5-5.6h4.9c1.4 0 2.3 1.1 2.3 2.3 0 1.1-1 2.3-2.3 2.3h-4.9zm5.5 13.2h-5.5v-6h5.5c1.6 0 3 1.4 3 3s-1.4 3-3 3z"/><path d="m23.3 42.9c.1.7.5 1 1.2 1s1.1-.3 1.2-1l3.1-11.3 3.1 11.3c.1.7.7 1 1.2 1 .7 0 1.1-.4 1.2-1l4.1-15.6c.1-.4 0-1-.3-1.2-.3-.3-.8-.4-1.2-.4-.4.1-.8.4-1 1l-3 11.3-2.9-11.2c-.1-.7-.5-1-1.2-1s-1.1.3-1.2 1l-3.2 11.2-3-11.3c-.1-.4-.4-.8-.8-.8-.4-.1-1 0-1.2.3-.3.3-.4.7-.3 1.2z"/><path d="m41.8 71.6h9.7c1.1 0 1.6-.8 1.6-1.6s-.7-1.6-1.6-1.6h-3.1v-13.5c0-1.1-.8-1.6-1.6-1.6s-1.6.7-1.6 1.6v13.4h-3.1c-1.1 0-1.6.8-1.6 1.6-.4.7.3 1.7 1.3 1.7z"/><path d="m89.8 0h-87c-1.1 0-2 1-2 2v87c0 1.1 1 2 2 2h87c1.1 0 2-1 2-2v-87c.1-1-.9-2-2-2zm-1.9 87.2h-83v-83h83z"/></g></svg>